<?xml version="1.0" encoding="UTF-8" standalone="no"?>
<svg
   xmlns:dc="http://purl.org/dc/elements/1.1/"
   xmlns:cc="http://creativecommons.org/ns#"
   xmlns:rdf="http://www.w3.org/1999/02/22-rdf-syntax-ns#"
   xmlns:svg="http://www.w3.org/2000/svg"
   xmlns="http://www.w3.org/2000/svg"
   viewBox="0 0 3178.5867 1379.1866"
   height="1379.1866"
   width="3178.5867"
   xml:space="preserve"
   id="svg2"
   version="1.1"><metadata
     id="metadata8"><rdf:RDF><cc:Work
         rdf:about=""><dc:format>image/svg+xml</dc:format><dc:type
           rdf:resource="http://purl.org/dc/dcmitype/StillImage" /></cc:Work></rdf:RDF></metadata><defs
     id="defs6"><clipPath
       id="clipPath20"
       clipPathUnits="userSpaceOnUse"><path
         id="path18"
         d="M 0,1034.394 H 2383.937 V 0 H 0 Z" /></clipPath><clipPath
       id="clipPath76"
       clipPathUnits="userSpaceOnUse"><path
         id="path74"
         d="M 0,1034.394 H 2383.937 V 0 H 0 Z" /></clipPath></defs><g
     transform="matrix(1.3333333,0,0,-1.3333333,0,1379.1867)"
     id="g10"><path
       id="path12"
       style="fill:#fab20b;fill-opacity:1;fill-rule:nonzero;stroke:none"
       d="M 0,0 H 2383.937 V 1034.393 H 0 Z" /><g
       id="g14"><g
         clip-path="url(#clipPath20)"
         id="g16"><g
           transform="translate(675.2798,423.3312)"
           id="g22"><path
             id="path24"
             style="fill:#d3860c;fill-opacity:1;fill-rule:nonzero;stroke:none"
             d="m 0,0 c 49.357,0.304 98.69,-30.588 86.69,-5.62 -16.971,35.311 110.667,17.258 204.143,3.803 8.914,-1.284 17.333,-3 29.333,-3.667 12,-0.666 9,2.667 26,6 17,3.334 69.333,-4.666 69.333,-4.666 0,0 22.667,-2 30.334,-1.334 7.666,0.667 -12,11 -12,11 0,0 -6,8.334 1,8 7,-0.333 10.666,6.334 21.333,7.334 10.667,1 44.667,-3.667 53.667,-3 9,0.666 15.333,-1 21.333,-1.334 6,-0.333 17.667,-3.333 27.667,-5.333 10,-2 20,-1.667 27,-1.333 7,0.333 10.333,1.666 19.666,2.333 9.334,0.667 16,1.333 22.334,0.333 6.333,-1 7.333,5.667 -1,6.334 -8.334,0.666 -13.667,0.333 -31.667,-0.667 -18,-1 -45,5.333 -58,14.333 -13,9 -15.667,5.667 -29.667,6 -14,0.334 -10.666,0.334 -22,1.667 -11.333,1.333 -19.666,9 -27.666,11 -8,2 -10,3.333 -17.667,4.667 -7.667,1.333 -7.333,0.666 -12.333,2.666 -5,2 -11.667,5 -19,4.667 -7.334,-0.333 -8.667,1 -19,2.333 -10.334,1.334 -9.334,1.667 -18,2.667 -8.667,1 -10.334,0 -14.667,-1 -4.333,-1 -11,0.667 -16.667,1.333 -5.666,0.667 -8.333,3.334 -6.333,5.334 2,2 6.333,3 4.333,5 -2,2 -16,2.666 -22,4.666 -6,2 -3.545,11.818 -0.666,13.667 6.736,4.327 27,0 32,1.333 5,1.333 22.666,8.667 22.666,8.667 0,0 15.667,5 32.334,4.333 16.666,-0.667 40.307,1.856 44,-0.667 4.787,-3.269 10.689,-8.112 15.689,-8.446 5,-0.333 5.977,0.446 19.311,-1.887 13.333,-2.333 6,-4.667 26,-4.667 20,0 17.666,-3.333 25.666,-2.666 8,0.666 6,1 12.667,2.666 6.667,1.667 5,2 10,3.334 5,1.333 8,4 14.333,4 6.334,0 3.667,-4.667 -3,-4.667 -6.666,0 -12.333,-2.333 -18.333,-6.333 -6,-4 3.833,-6.167 7.333,-5.667 3.5,0.5 17,2.5 26,2 9,-0.5 8,0.5 47,-3 39,-3.5 15.5,-4 34.5,-6.5 19,-2.5 34.5,-15.5 50.5,-19.5 16,-4 15,5 34,10 19,5 18,11 35,17 17,6 16.667,4 31.667,1.667 15,-2.333 35,7.666 51.333,6.333 16.334,-1.333 10,-6.666 21.334,-8 11.333,-1.333 32.666,-0.666 36.333,-0.333 3.667,0.333 13.667,3.667 27,2.667 4.939,-0.371 7.315,-0.192 8.91,0.197 0.169,-0.042 0.34,-0.082 0.536,-0.115 8,-1.333 22.666,0.667 39.333,0 16.667,-0.666 30.667,6.394 60.667,-0.47 30,-6.863 22.987,-8.783 37.654,-12.117 14.667,-3.333 -5.654,-10.746 -18.988,-10.746 -13.333,0 -9.333,-15.333 4.667,-14.667 14,0.667 25.468,6 33.067,4.667 7.6,-1.333 5.6,-2.709 29.6,-4.688 24,-1.979 59.333,6.688 76.666,7.355 17.334,0.666 13.334,-6.629 34,-7.649 20.667,-1.018 26,0.982 51.334,4.982 25.333,4 27.333,8 12,12 -15.334,4 -28,10 -50,12.667 -22,2.666 -44,7.333 -64.667,4.666 -20.667,-2.666 -24.667,10 -8.667,10.667 16,0.666 24,5.862 40,4.598 16,-1.265 24.667,-6.069 50,0 25.334,6.068 38.667,22.735 50.667,22.068 12,-0.666 -2.667,12 -14,14 -11.333,2 -23.91,3.049 -30.147,4.171 -20.878,3.754 -30.463,11.999 -51.23,8.999 -20.767,-3 -31.266,2.104 -58.265,-4.198 -26.998,-6.301 -36.766,-1.198 -67.88,0 -31.115,1.198 -57.95,-2.904 -53.811,-10.972 1.412,-2.753 17.254,-3.201 17.333,-8.666 0.079,-5.42 -42,-8.667 -48.667,-6.667 -6.666,2 -12,1.198 -23.333,-0.401 -4.522,-0.638 -6.302,-1.63 -11.165,-0.583 -0.004,0.053 -10.866,4.776 -11.947,10.901 -0.535,3.026 3,12.667 9.666,14.334 6.667,1.666 7.316,2.328 23.334,3 8.436,0.354 12.161,-0.497 18.827,-1.497 6.667,-1 10.506,2.83 5.839,5.163 -4.666,2.334 -9.666,3.334 -16,9.667 -6.333,6.333 1,10.333 7.334,13 6.333,2.667 7.333,3.333 12.333,4.333 5,1 13.003,-0.155 16.667,0 15.691,0.663 6.666,9 3.333,10.334 -3.333,1.333 -9.809,5.163 -24,6 -5.335,0.315 -7,7.333 -2.667,7.333 4.334,0 11.667,1 9.334,3.667 -2.334,2.666 -6.334,3 -19.667,3.333 -13.333,0.333 -23.667,0.333 -34.333,2 -10.667,1.667 -16.667,0.333 -30,0.333 -13.334,0 -11.105,4.211 -18.667,6.667 -18.976,6.163 -39.226,-3.837 -71.667,4.333 -11.318,2.851 -18.666,1 -26.333,1.334 -7.667,0.333 -11.667,-1 -13.667,5.666 -2,6.667 -11.666,1.667 -11.666,1.667 0,0 -18.667,1.667 -21.667,3.333 -3,1.667 12.667,6.667 19,9.334 6.333,2.666 5.667,12.666 -8,14 -13.667,1.333 -36.667,8.166 -12.833,13.666 4.871,1.125 21.606,11.996 16.166,16 -12,8.834 -47.583,9.084 -55.333,8.834 -7.75,-0.25 -26.337,2.19 -34.917,4.316 -10.187,2.524 -27,9 -46.333,10.333 -19.333,1.333 -18.667,1.575 -28.333,1.575 -9.667,0 -25.417,0.609 -38.75,-0.058 -13.334,-0.666 -2.334,-6 -3.667,-14.333 -1.333,-8.333 -2,-5 -9.333,-8.667 -7.334,-3.666 -6,0 -21,2 -15,2 -20.667,3.667 -33,-1 -12.334,-4.666 -9,1.667 -22,0.667 -13,-1 -27,12.667 -39,12.667 -12,0 -17.334,-2.334 -33,-3.334 -15.667,-1 -83.25,22.65 -96.584,16.65 -11.968,-5.386 -218.514,-23.093 -229.559,-20.795 -15.5,3.225 -110.25,13.975 -116,6.975 -3.618,-4.405 -79.03,-8.187 -90,-7.375 -31.51,2.333 -65.333,7.671 -80,0 -8.241,-4.31 -84.354,6.195 -77.854,-0.305 6.5,-6.5 -30.841,-15.998 -31.833,-20.167 -5.792,-24.333 124.667,-18.237 132.167,-24.07 6.327,-4.921 -0.068,-13.126 -15.834,-10.93 -23.28,3.243 -26,3.667 -34.816,4.556 -16.059,1.617 -12.267,-8.872 -15.767,-2.872 -3.5,6 -43.333,-1 -53.333,-0.333 -10,0.666 -26.334,-9 -21.334,-14 5,-5 10.334,-6 17.667,-7 7.333,-1 12.333,-1.334 32.667,-4.334 20.333,-3 26,-4 38.666,-8 12.667,-4 11.334,2.334 26,-3.666 14.667,-6 -8.062,-8.546 3.604,-17.879 11.667,-9.333 99.99,-6.952 107.5,-8.121 18.5,-2.879 29,-19.879 -0.062,-26.631 -4.728,-1.099 -108.53,-1.27 -116.771,-6.581 -32.396,-20.879 -37.333,-10.667 -46.553,-26.455 -5.132,-8.788 51.494,-3.631 68.616,-5.333 6.219,-0.619 14.666,-3.667 24,-7 9.333,-3.334 2.833,-15.667 0.333,-16.667 -2.5,-1 -13,-0.5 -29,-1 -16,-0.5 -10.5,2 -29,3 -18.5,1 -25.5,3 -51.5,-1 -26,-4 -23,0 -33.5,-1 -10.5,-1 -27.5,-7 -38,-7 -10.5,0 -39.5,-0.5 -28.5,-8 11,-7.5 17.5,2.5 32,-4.5 14.5,-7 13,-3 17,-10 4,-7 1.34,-4.094 10,-8 8.5,-3.833 0.833,-5.833 -4.833,-7.166 -5.667,-1.334 -13.667,4 -18.334,2 -4.666,-2 -5.333,-10 3.334,-15 8.666,-5 -2.667,-8 -2.667,-8 0,0 -20.333,-3.667 -28.667,-2 -8.333,1.666 -8.409,-5.444 -7,-6.334 6.604,-4.17 16.438,-1.003 27.334,-9.666 7.278,-5.787 9.333,-1.667 30.333,-1.334 21,0.334 116.271,5.455 141.937,0.122 25.667,-5.334 91.667,-0.667 103.334,-1.334 C -18.31,1.638 -17.919,-0.11 0,0" /></g><g
           transform="translate(1997.4702,708.3854)"
           id="g26"><path
             id="path28"
             style="fill:#d3860c;fill-opacity:1;fill-rule:nonzero;stroke:none"
             d="m 0,0 c -39.979,1.62 -53,5 -83,7 -30,2 -53,-4 -96,-7 -43,-3 -72,4.4 -123,3.7 -51,-0.7 -102,1.862 -132,-4.419 -30,-6.281 -61.667,-12.573 -35.667,-16.573 26,-4 16.667,-8.708 58.667,-13.708 42,-5 51,-9 69,-19 18,-10 9,-25 61,-18 52,7 50,15 66,7 16,-8 13,-3 41,-14 28,-11 15,-5 58,-8 43,-3 34.161,12 70.081,7 C -10,-81 20,-74 28,-70 c 8,4 34,28.999 17,32 -17,3 -49.298,0 -57.649,4 C -21,-30 -14,-23 -1,-20 12,-17 17.958,-0.728 0,0" /></g><g
           transform="translate(1457.9702,708.0104)"
           id="g30"><path
             id="path32"
             style="fill:#985c11;fill-opacity:1;fill-rule:nonzero;stroke:none"
             d="M 0,0 C -19.384,5.025 -45,4.049 -72,10.025 -99,16 -143.5,23 -153.5,21.5 c -10,-1.5 -17,2.5 -17,-7 0,-9.5 -1,-9.754 -10.5,-14.627 C -190.5,-5 -189,-12 -199,-7 c -10,5 -10,9 -21.25,7.75 -9.136,-1.015 -21.25,-3.25 -29.25,-2.25 -8,1 -16.5,4 -24,4 -7.5,0 -9.768,10.904 -26.268,9.904 -16.5,-1 -36.732,-7.904 -57.232,-0.404 -20.5,7.5 -53,16.5 -65.5,13.5 -12.5,-3 -109,-16.5 -152,-19.5 -43,-3 -71.5,-8 -86,-3.5 -14.5,4.5 -82.5,9.185 -104,2.5 -21.5,-6.685 -44.25,-1.75 -62,0 -15.433,1.521 -76,3.87 -88,3.685 -12,-0.185 -45.5,-4.185 -36,-12.185 9.5,-8 24,-3.444 41,-5.222 17,-1.778 54,-10.278 72,-11.778 18,-1.5 -4.5,-7.5 -19,-7.5 H -884 c -6,0 -12.5,-7.5 5,-8.5 17.5,-1 13.5,1 33,0 19.5,-1 47.5,-1 68.5,-8.5 21,-7.5 58.681,-21.626 94.5,-19.5 35.819,2.125 143.255,-9.121 176.877,-7.914 33.623,1.207 27.246,3.582 65.507,-0.262 38.261,-3.845 92.67,-8.096 107.978,-5.97 15.308,2.125 125.082,18.897 173.971,14.646 48.89,-4.251 79.783,-7.838 111.667,-8.333 31.885,-0.495 73.949,-2.062 58.574,9.629 -15.374,11.691 -44.756,8.311 -60.012,14.879 -10.529,4.533 -8.895,8.408 0.438,12.45 9.333,4.042 6.667,-0.625 20,4.708 13.333,5.334 15.333,16.667 23.333,18 8,1.334 22.667,8 4.667,12.667" /></g><g
           transform="translate(1585.9702,631.5104)"
           id="g34"><path
             id="path36"
             style="fill:#985c11;fill-opacity:1;fill-rule:nonzero;stroke:none"
             d="M 0,0 C -16.867,0 -44,9 -56.5,6.5 -69,4 -96.5,0.009 -109,-2.746 -121.5,-5.5 -148,-8.5 -166.5,-8 c -18.5,0.5 -44,3.449 -61,3.724 -17,0.276 -65.5,5.852 -77,3.814 C -316,-2.5 -318,1.009 -335,-2.746 c -17,-3.754 -28,-0.245 -40.5,0 -12.5,0.246 -75,-9.364 -107.5,-5.309 -32.5,4.055 -87.5,4.632 -100.5,7.093 -13,2.462 -87.5,-3.029 -100.5,-1.784 -13,1.246 -105.5,3.323 -123.5,1.784 -18,-1.538 -43.5,-1.752 -63,3.462 -8.6,2.299 -15.253,6.413 -31.5,10.5 -10.125,2.547 -34,5.917 -56,4.958 -22,-0.958 -46,-2.458 -62.5,-4.458 -16.5,-2 -14,2.5 -35,-0.5 -21,-3 -33.5,0.5 -39.5,-3 -6,-3.5 3.5,-1.957 12.5,-5.479 9,-3.521 36,-14.521 27,-18.021 -9,-3.5 -9,-5.5 -1,-8.5 8,-3 15,-3.5 26,-3 11,0.5 75,1.25 86,-10.5 13.775,-14.714 0.25,-24.613 -13.75,-24.25 -14,0.363 -16.702,-3.75 -26.226,-4.417 -9.524,-0.666 -16.857,0.667 -15.524,-4 1.333,-4.666 10.333,1.241 20.551,-2.706 10.217,-3.947 37.118,-0.2 48.668,1.279 11.55,1.478 35.094,-2.793 47.088,-1.323 11.995,1.469 59.527,-3.872 79.961,-0.313 20.435,3.559 31.54,5.335 49.754,5.335 18.213,0 44.867,0 66.634,-1.776 21.767,-1.777 149.704,0.888 173.248,3.998 23.544,3.109 35.539,4.886 46.644,3.553 11.106,-1.332 87.069,7.996 105.726,4.887 18.658,-3.11 4.887,-5.331 35.539,-6.219 30.651,-0.889 33.317,0.888 46.643,-0.444 13.327,-1.333 26.21,3.553 35.094,8.884 8.885,5.331 11.55,11.55 17.769,5.331 6.22,-6.219 -2.069,-7.074 0.181,-9.946 2.25,-2.873 7.25,-4.373 9.25,-3.873 2,0.5 2.75,2.745 6.5,3.873 3.75,1.127 6.5,5.627 10,4.877 3.5,-0.75 1.25,-0.505 6.5,-4.877 5.25,-4.373 9.75,-4.373 11.75,-2.123 2,2.25 13,10 14,5.25 1,-4.75 -2.75,-3.75 -2.5,-6.25 0.25,-2.5 2.75,-6 7.5,-2.75 4.75,3.25 4.75,1.995 7.5,5.873 2.75,3.877 2.5,3.877 6.25,7.627 3.75,3.75 11.75,9 12.75,3.25 1,-5.75 -3.75,-16.5 9.25,-15 13,1.5 31.75,-0.75 39.75,3 8,3.75 3.5,8.75 14.75,8.25 11.25,-0.5 26.917,13.336 37.25,8.75 4.235,-1.88 9.136,-2.84 14.5,-2 15.553,2.434 32.75,7.5 42.5,7.25 9.75,-0.25 4.75,1.5 20.75,2.5 16,1 31,3.603 46.5,4.542 15.5,0.94 19.82,5.929 15.75,7.19 -4.871,1.509 -2.25,1.75 -19.75,3 -17.5,1.25 -22.75,3.018 -32.25,1.768 -9.5,-1.25 -13.25,2.75 -26.75,2.5 -13.5,-0.25 -20.25,2.25 -25,3.75 -4.75,1.5 1.5,6.5 7.75,4.5 6.25,-2 16.25,-0.25 21.25,0.75 5,1 11,1.75 11,3 C 40.25,-1.75 37,1 33,1.25 29,1.5 16,1.25 12,1 8,0.75 8.5,0 0,0" /></g><g
           transform="translate(892.2009,543.6769)"
           id="g38"><path
             id="path40"
             style="fill:#985c11;fill-opacity:1;fill-rule:nonzero;stroke:none"
             d="M 0,0 C -11.193,3.528 -17.747,9 -34.655,6 -51.564,3 -73.564,1.737 -85.564,3.369 c -12,1.631 -20.12,2.368 -41.06,0 C -147.564,1 -193.882,-8 -221.723,-6 c -27.841,2 -55.025,5.973 -75.44,6.225 -33.355,0.41 -41.579,-3.971 -42.651,-10.725 -0.299,-1.882 6,-7.539 6,-9.5 0,-11 2.5,-20.5 -39.959,-19.077 -22.569,0.756 -50.291,4.017 -69.291,-0.953 -19,-4.97 -38,-3.97 -40,-5.97 -2,-2 6,-12.5 18,-11.5 12,1 17,-3.5 25.5,-9.5 8.5,-6 5.5,-7 21.5,-14 16,-7 56,-7.5 72.5,-7 16.5,0.5 35.048,0.718 52.524,-0.142 17.476,-0.858 80.476,-0.14 103.976,0 23.5,0.142 33,-6.858 42.5,-6.858 9.5,0 7.5,5.5 18.5,7 11,1.5 55.5,2.5 65.5,0 10,-2.5 35.5,-0.5 51,0.5 15.5,1 87,-9.5 117,-7.5 30,2 48.241,13 66.621,12 18.379,-1 -14.621,13 -31.621,9 -17,-4 -39,2 -51,1 -12,-1 -28,2 -40,1 -12,-1 -23,18 -40,16 -17,-2 -16.872,20 -9.436,25 7.436,5 54.182,6.697 57.936,10 12.5,11 -10.5,16 -18.5,17 -8,1 -22.029,-1.486 -39.436,4" /></g><g
           transform="translate(1052.4702,721.8136)"
           id="g42"><path
             id="path44"
             style="fill:#1f0d02;fill-opacity:1;fill-rule:nonzero;stroke:none"
             d="m 0,0 c -27.47,5.777 -26.5,0.197 -90.5,-7.803 -64,-8 -82.5,-7.5 -101,-9 -18.5,-1.5 -55,-4 -72,0 -17,4 -30,9.726 -51.5,7.363 -21.5,-2.363 -51,-6.184 -69,-9.523 -18,-3.34 -32,-3.84 -30.5,-6.84 1.5,-3 16.5,-10.5 29.5,-11 13,-0.5 15,-1.122 37.5,-3.561 22.5,-2.439 22,-5.939 26,-9.939 4,-4 11.5,-12.5 18,-13.5 6.5,-1 0.5,-7 22,-4.5 21.5,2.5 56.5,-0.75 85.5,-3.875 29,-3.125 30,-0.375 50.5,0 20.5,0.375 32,-12.625 57.5,-8.625 25.5,4 29.5,-1.531 49.5,-0.766 20,0.766 30,6.266 45,2.766 15,-3.5 15,9 25,14.5 10,5.5 16.5,11 26.5,17.5 10,6.5 4.5,27.75 -22,31.75 C 9.5,-11.053 16.5,-3.47 0,0" /></g><g
           transform="translate(1230.2781,657.7316)"
           id="g46"><path
             id="path48"
             style="fill:#1f0d02;fill-opacity:1;fill-rule:nonzero;stroke:none"
             d="m 0,0 c 15.211,2.13 15.418,-2.893 31.642,3.266 0.001,0 0.002,10e-4 0.002,10e-4 5.671,1.372 10.533,2.795 32.726,0.104 33,-4 23.087,-8.428 55.087,-5.553 32,2.875 53.659,-5.165 59.568,-4.039 4.665,0.888 4.732,3.149 -7.166,6 -11.824,2.833 -8.667,13.553 -3.167,15.526 5.5,1.974 11.182,4.725 16.957,4.947 5.776,0.223 8.769,0.448 15.327,3.466 7.466,3.436 8.885,8.973 13.994,12.971 5.109,3.999 10.202,4.903 10.217,7.997 0.032,6.19 -25.544,4.665 -50.495,8.593 -20.01,3.15 -48.5,6.5 -65.5,10.5 -17,4 -46,8.549 -46,-3.475 0,-12.025 -4,-8.025 -15.5,-15.525 -11.5,-7.5 -16,-6.5 -20,-12.5 -3.443,-5.165 -9.483,-8.109 -16.836,-12.017 -16.741,-4.953 -36.751,-2.991 -50.483,-2.599 -13.732,0.393 -38.449,-9.808 -57.674,-6.669 -19.225,3.138 -25.502,-11.378 -5.492,-10.986 20.009,0.392 58.458,0 73.367,2.354 C -14.517,4.716 -15.211,-2.13 0,0" /></g><g
           transform="translate(1414.9702,539.0104)"
           id="g50"><path
             id="path52"
             style="fill:#985c11;fill-opacity:1;fill-rule:nonzero;stroke:none"
             d="M 0,0 C -10.699,-2.578 -48.107,23.44 -59.975,12.458 -71.843,1.476 -73.063,-5.846 -74.894,-10.117 c -1.83,-4.271 5.432,-5.491 14.919,-15.253 9.486,-9.762 22.948,-18.365 38.772,-22.575 15.825,-4.21 21.355,4.881 30.507,10.983 9.152,6.101 1.22,6.712 19.524,14.643 18.304,7.931 48.919,6.617 64.172,5.397 15.253,-1.221 3.7,20.249 -10.333,16.589 C 68.634,-3.994 43.393,7.616 30.772,7.616 18.151,7.616 12.597,3.035 0,0" /></g><g
           transform="translate(1328.6497,529.6715)"
           id="g54"><path
             id="path56"
             style="fill:#633a17;fill-opacity:1;fill-rule:nonzero;stroke:none"
             d="m 0,0 c -4.294,5.726 6.321,6.672 9.321,11.339 3,4.666 3.666,7 0,10 -3.667,3 -7.667,4.018 -15,3.176 -7.334,-0.843 -16.667,-3.51 -24.334,-2.51 -7.666,1 -8.666,4.019 -20.666,2.51 -12,-1.51 -11,1.49 -25,-1.843 -14,-3.333 -37.334,4.685 -56,1.843 -18.667,-2.843 -34.334,3.42 -41.667,0.622 -7.333,-2.798 -20.667,-1.113 -35.333,-0.622 -14.667,0.49 -25.332,4.49 -29.666,-2.176 -4.334,-6.667 17.002,-3.334 24.834,-5 7.832,-1.667 12.498,0.333 22.165,-4 9.667,-4.334 8.667,-6.667 21,-10 12.333,-3.334 13.667,-1.667 28.333,-2.334 14.667,-0.666 12.334,-8.666 25.334,-6 13,2.667 19.333,3.667 31,5 11.666,1.334 13.333,1.667 15.333,-3 2,-4.666 1.333,-6 16.333,-7.666 15,-1.667 30.667,-0.334 42.334,0 11.666,0.333 19.333,-0.511 19,3.078 C 6.987,-3.995 2,-2.667 0,0" /></g><g
           transform="translate(1430.637,551.0104)"
           id="g58"><path
             id="path60"
             style="fill:#985c11;fill-opacity:1;fill-rule:nonzero;stroke:none"
             d="m 0,0 c -7.674,-3.316 -18.667,-8.333 -27.667,-5.333 -9,3 -16.333,10.75 -10.666,13.208 5.666,2.458 5,1.208 14.666,0 C -14,6.667 -11,6.417 -6.333,7.875 -1.667,9.333 6.333,8.292 7.333,4.812 8.333,1.333 3.37,1.456 0,0" /></g><g
           transform="translate(1719.5159,734.1022)"
           id="g62"><path
             id="path64"
             style="fill:#d3860c;fill-opacity:1;fill-rule:nonzero;stroke:none"
             d="m 0,0 c -43.96,1.349 -138.546,9.092 -160.546,0 -22,-9.092 -45,-7.535 -66,-8.313 -21,-0.779 -80.314,2.405 -102.657,8.313 -22.343,5.908 -104.343,9.501 -127.009,5.705 -22.667,-3.797 -98,-8.279 -106.667,-5.705 -8.667,2.575 -8.979,15.135 -21.791,11.932 -12.812,-3.203 -35.783,-3.08 -45.117,0.519 -9.333,3.599 -9.79,12.293 -23.975,9.548 -14.184,-2.746 -26.538,-5.034 -37.977,-4.576 -11.439,0.457 -17.845,-5.591 -46.214,-11.718 -28.369,-6.127 -46.093,18.438 -58.593,16.82 -12.5,-1.617 -34.5,3.271 -62,0.077 -27.5,-3.194 -44,4.306 -49,9.306 -5,5 20.5,6.5 32.5,5 12,-1.5 10.058,-1.39 32.029,0.555 21.971,1.945 23.971,-4.445 43.971,0 20,4.445 5.5,9.945 34.5,5.945 29,-4 27,-4 57,-1.5 30,2.5 26,11.5 15.5,13.5 -10.5,2 -8,4.5 1,6.5 9,2 16.5,0.5 29.5,0 13,-0.5 110.834,-13 127.334,-8 16.5,5 25.933,11.431 45.166,8.062 60,-10.511 67.5,1.118 95.5,-13.395 16.286,-8.442 43.5,-9.167 58.5,-4.667 15,4.5 130.505,-2.47 148,-5 13.834,-2 -1.382,-5.223 -5,-7.5 -7.803,-4.91 4.5,-6 23,-7 18.5,-1 68,-0.5 81.5,-0.5 13.5,0 32,5.867 42,3.434 10,-2.434 48.5,-9.934 65,-8.434 16.5,1.5 70,0.5 83.5,-2.5 13.5,-3 -4,-7 -14.5,-8 -10.5,-1 -19,5.5 -38.5,1 C 30.454,4.908 21.036,-0.645 0,0" /></g><g
           transform="translate(1953.0508,701.3229)"
           id="g66"><path
             id="path68"
             style="fill:#985c11;fill-opacity:1;fill-rule:nonzero;stroke:none"
             d="m 0,0 c -46.24,5.104 -75.619,9.959 -125.669,0 -50.051,-9.959 -103.624,11.204 -135.968,0 -32.345,-11.204 9.89,-6.81 23.223,-12.728 13.333,-5.918 26.667,-1.918 35.333,-11.918 8.667,-10 10,-15.333 30,-16 20,-0.667 18.667,-2.083 42.667,-11.042 24,-8.958 68.667,0.375 104,5.042 35.333,4.667 51.368,0.667 59.684,6.667 8.316,6 -13.017,11.916 -24.351,11.291 C -2.414,-29.312 24.554,-2.71 0,0" /></g></g></g><g
       id="g70"><g
         clip-path="url(#clipPath76)"
         id="g72"><g
           transform="translate(1525.6841,664.3566)"
           id="g78"><path
             id="path80"
             style="fill:#985c11;fill-opacity:1;fill-rule:nonzero;stroke:none"
             d="m 0,0 c 0.596,1.868 0.154,3.166 -1.561,3.469 -11.467,2.023 -21.082,-6.289 -20.783,-18.509 0.155,-6.356 6.432,-15.814 16.532,-16.008 6.638,-0.127 15.134,3.12 17.746,13.511 C 13.893,-9.743 9.025,-2.156 5.116,0.434 4.334,0.952 3.382,0.694 2.428,-1.561 1.756,-3.15 0.004,-6.589 -0.669,-8.672 c -0.262,-0.807 -0.496,-1.252 -0.087,-1.852 0.79,-1.161 1.416,-2.518 0.82,-4.708 -0.508,-1.867 -3.352,-5.189 -7.432,-3.213 -3.654,1.77 -3.59,5.942 -1.745,8.132 1.739,2.064 3.97,1.978 4.538,1.914 0.564,-0.063 1.169,-0.231 1.689,1.17 C -2.205,-5.396 -0.59,-1.851 0,0 m 52.73,-16.414 c -0.663,-0.202 -2.477,-0.94 -2.125,-2.022 0.41,-1.26 1.006,-3.133 1.807,-3.703 2.255,-1.604 6.756,-1.842 8.143,-1.972 1.388,-0.13 3.092,0.218 3.266,0.912 0.173,0.694 -1.218,1.324 -0.988,2.451 0.23,1.127 0.952,1.992 1.217,2.888 0.281,0.946 0.025,0.973 -0.502,1.911 -0.386,0.689 -0.654,1.239 -1.407,1.136 -0.663,-0.09 -8.268,-1.252 -9.411,-1.601 m 6.542,18.131 c -0.843,-0.418 -0.319,-1.655 0.202,-2.502 0.52,-0.847 5.676,-7.325 6.311,-8.076 0.636,-0.752 2.97,0.125 4.727,-1.785 1.679,-1.824 1.565,-3.866 0.346,-5.673 -1.068,-1.582 -2.909,-1.812 -3.913,-1.798 -0.867,0.013 -0.685,-1.272 -1.025,-1.965 -0.53,-1.082 -1.145,-1.188 -0.768,-2.64 0.188,-0.725 0.44,-1.704 0.205,-2.386 -0.133,-0.384 -0.377,-0.745 -1.068,-0.794 -0.666,-0.047 -0.925,0.232 -2.081,0.521 -2.789,0.697 -5.745,0.869 -6.785,0.718 -0.865,-0.125 -1.319,-0.374 -0.467,-1.23 0.852,-0.856 4.52,-4.795 11.219,-5.135 10.511,-0.533 17.783,7.515 18.428,15.435 0.487,5.987 -1.57,12.603 -7.777,16.462 -3.248,2.019 -9.803,4.687 -17.554,0.848 m -1.931,-3.699 c -0.879,0.985 -1.908,0.86 -2.686,0.1 -2.49,-2.434 -4.364,-6.446 -4.703,-11.413 -0.067,-0.983 0.934,-0.929 2.664,-0.872 1.73,0.059 9.155,1.278 9.791,1.394 0.636,0.116 1.698,1.608 1.004,3.04 -1.22,2.515 -4.484,5.972 -6.07,7.751 m -7.134,4.336 c 0.042,-1.042 -3.228,-3.154 -3.69,-3.732 -0.462,-0.579 -1.292,-5.658 -1.696,-7.507 -0.405,-1.85 0.458,-2.31 0.738,-0.888 1.128,5.723 5.062,10.594 6.641,12.084 1.258,1.188 0.54,2.462 0.078,3.156 -0.463,0.694 -3.135,4.416 -3.771,4.3 C 47.871,9.651 48.103,8.611 47.12,6.205 47.394,5.167 50.122,4.474 50.207,2.354 M 12.906,17.77 c -0.105,-0.485 1.802,-2.142 2.905,-3.52 1.052,-1.315 15.064,-18.242 16.163,-19.225 1.098,-0.983 2.542,-2.139 4.451,-0.231 1.041,1.041 1.86,2.154 1.893,4.973 0.036,3.168 0.375,6.812 -0.396,8.199 -0.772,1.388 -1.85,2.476 -2.814,3.506 -1.427,1.527 -7.04,2.884 -11.62,4.114 -7.176,1.927 -10.37,3.16 -10.582,2.184 m 11.379,7.605 c -0.445,0.943 -0.347,1.507 -1.966,1.419 -1.618,-0.089 -7.11,-0.453 -8.209,-0.705 -1.098,-0.251 -0.573,-1.793 -1.271,-2.852 -0.449,-0.681 -0.228,-1.452 0.739,-1.699 1.215,-0.311 13.393,-3.183 14.872,-3.535 0.891,-0.211 1.034,0.455 0.283,1.668 -0.752,1.215 -3.909,4.563 -4.448,5.704 m 17.863,1.417 c -2.339,-0.091 -5.856,-0.34 -6.94,-0.867 -1.287,-0.627 2.358,-1.171 2.691,-4.162 0.357,-3.21 1.57,-6.058 1.995,-5.408 0.213,0.327 1.3,4.28 2.254,6.361 0.954,2.081 1.915,4.151 0,4.076 M 30.789,41.447 c -2.093,-1.954 -1.043,-6.29 0.799,-5.249 1.843,1.04 7.352,3.254 8.566,3.688 1.214,0.433 0.693,1.301 -2.168,1.561 -2.862,0.26 -5.897,1.214 -7.197,0 M 11.018,28.526 c 2.168,0.434 10.752,2.255 13.746,4.313 2.995,2.058 -1.364,0.924 -4.139,-0.14 C 17.85,31.635 10.654,30.018 9.11,29.394 6.751,28.439 8.85,28.093 11.018,28.526 M 4.604,58.672 C 3.512,58.549 1.759,57.813 1.255,58.523 c -0.535,0.755 1.259,6.096 2.74,8.673 2.033,3.539 7.428,6.802 12.38,4.145 4.186,-2.246 6.335,-5.752 3.654,-7.798 -0.818,-0.624 -0.711,-2.3 0.913,-2.571 1.624,-0.271 1.666,4.697 5.944,4.119 2.544,1.618 3.074,7.368 7.332,7.368 4.257,0 10.534,-2.452 13.656,-4.071 3.122,-1.618 3.367,-4.411 4.581,-5.683 1.214,-1.272 4.105,-2.592 5.004,-4.92 1.442,-3.732 -2.739,-5.996 -0.254,-8.765 3.958,-4.411 5.858,-8.634 5.372,-12.412 -0.347,-2.699 -1.273,-4.128 -4.34,-6.376 -2.631,-1.926 -4.064,-5.492 -5.105,-7.747 -1.041,-2.255 -3.353,-5.839 -3.584,-7.804 -0.232,-1.966 1.156,-3.238 2.139,-4.567 0.982,-1.33 2.034,-2.626 2.572,-3.135 0.806,-0.764 2.208,-1.182 3.786,-0.468 8.716,3.943 17.111,1.38 21.411,-1.573 9.218,-6.331 10.363,-14.895 10,-20.69 -0.697,-11.116 -10.509,-20.487 -23.768,-20.099 -9.36,0.275 -15.807,7.36 -18.424,12.595 -0.462,0.924 -4.422,-0.911 -5.463,-0.853 -1.04,0.057 -2.486,1.156 -3.815,0.635 -1.33,-0.52 -3.873,-2.139 -7.111,-1.85 -3.237,0.289 -3.526,1.561 -1.734,2.544 1.792,0.983 0.578,0.174 1.792,0.983 1.214,0.809 3.006,2.081 3.237,2.601 0.232,0.521 -1.233,1.799 -0.578,4.856 0.174,0.81 -0.193,2.08 -1.329,3.527 -1.908,2.428 -18.656,22.147 -19.696,23.303 -1.041,1.156 -1.41,1.737 -3.075,0.869 C 8.474,12.829 7.477,9.87 6.822,8.556 5.92,6.75 5.893,5.679 6.964,5.033 c 5.724,-3.449 11.943,-11.84 9.854,-23.41 -1.612,-8.929 -10.295,-17.736 -22.594,-17.52 -13.134,0.23 -21.375,11.531 -21.447,21.332 -0.114,15.495 13.177,25.062 25.721,22.731 4.333,-0.806 4.597,1.136 5.496,3.066 1.405,3.018 4.31,9.019 5.087,10.617 0.644,1.326 0.116,2.139 -0.752,2.313 -0.867,0.173 -1.445,-1.677 -2.717,-1.33 -1.271,0.347 -2.37,1.214 -3.699,1.619 -1.33,0.404 -1.041,1.272 -1.041,2.948 0,1.676 -0.463,4.162 1.33,4.972 1.792,0.809 3.526,-0.104 4.682,0.468 1.156,0.572 3.469,0.63 6.417,1.959 2.948,1.33 8.44,3.874 9.654,5.088 1.214,1.214 1.387,4.336 0.347,6.417 -1.041,2.081 -2.834,3.033 -4.728,3.777 -1.894,0.744 -2.844,1.414 -5.345,0.067 C 9.272,48.017 8.672,51.042 7.764,51.95 6.885,52.829 6.693,52.045 6.071,52.484 5.516,52.875 5.985,53.481 5.802,55.4 5.647,57.036 5.293,57.672 4.604,58.672" /></g><g
           transform="translate(1695.4011,674.3859)"
           id="g82"><path
             id="path84"
             style="fill:#985c11;fill-opacity:1;fill-rule:nonzero;stroke:none"
             d="m 0,0 c -1.86,0.523 -1.861,1.48 0.8,2.148 4.341,1.091 2.506,2.271 4.453,7.934 0.917,2.667 3.656,3.408 7.785,3.066 3.923,-0.324 5.526,-1.518 6.96,-3.126 0.973,-1.09 3.451,-5.219 1.858,-8.847 -1.592,-3.627 -1.131,-5.182 0.107,-6.509 1.239,-1.328 4.653,-4.56 5.454,-1.103 0.216,0.928 -1.403,9.559 -1.226,14.159 0.177,4.601 4.955,6.075 8.848,6.724 3.141,0.524 8.67,1.062 12.74,-0.708 4.069,-1.769 8.316,-7.962 7.077,-10.439 -1.238,-2.478 -1.828,-2.065 -1.12,-3.834 0.708,-1.77 1.828,-1.298 2.89,-5.545 1.062,-4.246 5.308,-11.501 4.423,-16.455 -0.884,-4.955 -0.53,-7.078 -2.123,-8.671 -1.593,-1.592 -2.654,0.354 -2.654,-4.777 0,-5.131 1.416,-0.708 3.716,-3.008 2.3,-2.301 3.067,-10.469 -1.77,-13.212 -0.967,-0.548 -4.323,-0.96 -9.938,-2.654 -2.82,-0.851 -6.326,-2.566 -8.405,-1.239 -1.521,0.971 -2.069,1.85 -2.167,1.504 -0.099,-0.346 0.25,-1.917 -0.723,-3.863 -1.946,-3.893 -9.555,-16.279 -11.855,-18.579 -0.877,-1.032 -3.821,-3.898 -5.073,-6.489 -0.797,-1.649 2.95,-8.139 6.134,-10.262 3.185,-2.123 7.331,-5.328 8.14,-6.37 1.12,-1.445 0.413,-2.064 0.118,-3.185 -0.12,-0.456 5.19,-2.595 5.662,-3.775 0.472,-1.179 -3.303,-5.308 -5.426,-7.667 -2.124,-2.36 -4.247,-7.668 -6.606,-8.847 -2.36,-1.18 -3.657,-0.473 -3.067,3.066 0.59,3.54 1.769,6.724 1.769,8.376 0,1.651 -1.062,1.651 -1.062,1.651 0,0 -1.415,-0.708 -2.477,0.472 -1.047,1.164 -2.833,3.824 -3.681,2.998 -0.79,-0.77 2.555,-12.825 2.679,-13.32 0.236,-0.943 -1.298,-1.297 -1.298,-1.297 0,0 1.415,-3.303 0.59,-4.601 -0.826,-1.298 -4.955,-0.59 -11.915,-1.651 -6.959,-1.062 -10.144,2.241 -9.555,3.067 0.59,0.826 8.494,4.129 8.258,6.016 -0.236,1.887 -1.18,1.415 -2.241,6.016 -1.062,4.601 -6.636,26.247 -5.574,29.668 1.061,3.42 5.839,12.474 8.405,17.164 1.026,1.874 1.946,5.249 3.362,7.844 1.415,2.595 0.53,6.547 0.177,7.726 -0.354,1.18 -2.124,-0.589 -3.067,-2.005 -0.944,-1.415 -1.05,-1.893 -1.719,-5.256 -0.668,-3.364 -3.118,-5.136 -4.081,-4.299 -0.963,0.837 -1.836,4.022 -1.693,5.285 0.143,1.262 1.161,3.072 2.892,5.214 3.48,4.306 3.834,10.676 5.721,14.391 1.457,2.869 -1.297,3.539 -1.651,7.078 -0.354,3.539 -2.035,9.172 -1.504,11.561 0.53,2.388 1.769,4.777 5.662,7.387 1.519,1.018 1.371,2.123 -0.442,2.035 -1.814,-0.089 -3.214,-0.459 -4.114,0.044 -1.372,0.767 -1.257,2.733 -2.455,2.964 -1.151,0.221 -1.047,0.885 -0.686,2.057 0.67,2.174 0.324,3.236 0.324,3.236 0,0 -2.805,-0.054 -5.636,0.742" /></g><g
           transform="translate(1138.6487,713.7418)"
           id="g86"><path
             id="path88"
             style="fill:#1f0d02;fill-opacity:1;fill-rule:nonzero;stroke:none"
             d="m 0,0 c 2.982,-0.952 8.508,-2.891 13.295,-3.324 5.409,-0.489 4.139,-0.119 1.041,1.958 C 12.03,0.18 8.723,2.616 7.018,3.222 4.369,4.163 -3.121,0.996 0,0 m -55.112,28.418 c -0.638,0.632 -5.525,1.832 -6.832,4.572 -1.307,2.74 -1.657,1.951 -2.468,1.884 -0.811,-0.068 -4.593,-0.434 -5.282,0.382 -0.689,0.816 -5.007,5.108 -3.794,12.941 1.215,7.834 7.819,16.224 18.08,14.593 10.26,-1.632 13.821,-7.897 13.077,-9.544 -0.744,-1.646 -2.824,-2.743 -2.824,-2.743 0,0 2.612,-1.349 2.362,-4.121 -0.25,-2.772 1.821,-4.983 2.813,-4.932 0.992,0.05 7.291,1.719 11.428,0.997 6.122,-1.068 13.192,-5.533 15.539,-7.15 2.348,-1.615 3.492,-4.157 5.873,-2.962 2.382,1.196 3.742,1.832 6.514,1.582 2.772,-0.249 6.936,-1.419 8.982,0.467 2.047,1.886 1.464,4.555 4.758,3.835 3.293,-0.72 13.157,-6.234 15.3,-7.912 2.77,-2.169 5.97,-5.183 3.886,-8.582 -2.955,-4.823 -9.574,-1.487 -11.344,0.054 -1.77,1.542 -4.817,-0.77 -2.75,-2.165 3.002,-2.026 5.3,-5.483 7.811,-7.681 2.511,-2.199 10.18,-6.815 12.73,-8.798 2.55,-1.982 8.774,-6.605 12.644,-7.783 3.871,-1.179 15.287,-2.958 20.083,-4.957 4.797,-1.999 15.966,-7.081 17.845,-8.067 1.879,-0.985 5.6,-3.703 7.385,-4.149 1.784,-0.447 4.835,-2.168 7.468,-3.482 2.632,-1.315 3.87,-4.011 5.062,-6.247 1.191,-2.235 4.45,-2.55 1.991,-7.01 -2.46,-4.459 -5.536,-8.676 -8.341,-6.87 -2.804,1.806 0.821,3.759 -2.124,7.334 -2.944,3.574 -2.92,2.695 -5.732,5.178 -2.812,2.483 -6.37,5.002 -7.564,5.318 -1.194,0.317 -0.163,-2.25 -2.754,-1.634 -2.59,0.616 -5.976,3.41 -10.053,4.718 -4.077,1.308 -12.598,4.105 -17.258,4.867 -4.66,0.761 -18.815,5.417 -21.149,6.977 -2.335,1.56 -9.877,4.657 -10.415,4.946 -0.539,0.29 -1.354,-0.619 -2.458,-2.549 -2.908,-5.086 -3.688,-10.555 -7.5,-13.495 -3.812,-2.939 -8.437,-4.628 -9.512,-2.918 -1.347,2.14 -0.401,3.036 1.042,5.108 1.443,2.072 2.527,8.849 2.269,9.586 -0.258,0.738 -1.919,0.403 -3.831,0.643 -0.744,0.094 -2.606,-4.717 -6.024,-3.583 -3.418,1.135 -9.157,-0.039 -12.454,0.829 -3.298,0.867 -11.625,-0.01 -15.248,-0.428 -3.623,-0.417 -8.849,-0.405 -10.394,4.405 -1.546,4.81 0.793,9.537 4.889,12.01 4.095,2.474 7.948,3.247 7.602,7.044 -0.325,3.577 -6.625,5.491 -9.258,6.422 -2.633,0.931 -2.979,0.541 -6.035,2.201 -3.056,1.659 -4.906,2.801 -7.219,1.05 -2.314,-1.75 -7.19,-4.766 -11.732,-5.375 -4.543,-0.609 -13.131,-3.483 -15.943,-4.088 -2.812,-0.606 -1.515,-1.803 -6.174,-3.108 -4.658,-1.304 -5.322,-1.24 -7.431,-2.255 -2.108,-1.014 -4.872,-1.491 -5.38,-1.332 -0.509,0.159 -2.407,-2.204 -3.559,-2.154 -1.153,0.051 0.368,4.059 2.395,6.373 2.027,2.314 3.207,3.687 5.611,4.1 2.404,0.413 2.636,0.172 5.814,1.156 3.178,0.984 7.881,2.614 11.759,4.919 3.878,2.306 12.545,7.074 14.832,7.73 3.434,0.984 4.494,2.368 2.992,3.853" /></g><g
           transform="translate(700.5308,476.8078)"
           id="g90"><path
             id="path92"
             style="fill:#d3860c;fill-opacity:1;fill-rule:nonzero;stroke:none"
             d="M 0,0 C -5.704,-0.378 -10.184,2.14 -18.548,1.311 -26.913,0.48 -33.689,-0.054 -37.89,0.004 c -4.201,0.058 -11.107,2.313 -13.567,2.337 -4.178,0.04 -7.688,0.567 -10.755,2.075 -3.067,1.507 -8.173,0.142 -13.421,0.638 -5.247,0.496 -12.821,1.077 -15.298,-1.197 -2.478,-2.272 -3.465,-4.817 -5.774,-10.223 -2.309,-5.405 -8.951,-18.601 -10.65,-20.994 -1.7,-2.394 -2.676,-2.366 -3.666,-0.577 -0.99,1.788 -2.512,2.125 -4.606,1.796 -6.133,-0.964 -3.381,3.048 -0.397,9.248 2.984,6.201 11.759,17.134 13.362,19.564 1.602,2.429 2.909,6.446 4.702,9.245 1.792,2.798 3.775,2.071 5.818,1.214 3.993,-1.677 8.042,-0.204 11.793,1.055 3.751,1.257 9.135,4.879 15.668,3.253 6.534,-1.625 10.115,-3.375 12.914,-2.919 2.799,0.455 2.659,1.533 0.765,3.821 -2.462,2.972 -4.455,4.806 -7.252,6.258 -5.762,2.988 -9.446,7.825 -15.23,10.477 -5.784,2.653 -9.515,-0.704 -11.978,-1.843 -5.838,-2.701 -10.688,-7.271 -13.573,-9.464 -2.886,-2.193 -4.598,2.409 -8.033,1.012 -1.46,-0.593 -8.173,0.982 -7.618,1.731 1.872,2.524 22.836,10.815 26.282,12.742 3.446,1.926 8.499,6.454 11.784,7.798 3.286,1.344 3.225,-1.282 5.234,-4.041 2.009,-2.759 8.226,-4.155 14.627,-6.055 6.402,-1.9 9.394,-5.152 10.738,-7.961 1.344,-2.808 0.244,-3.161 4.313,-4.03 4.069,-0.869 4.87,0.022 12.012,-1.792 2.297,-0.583 4.797,-1.622 6.03,-1.051 3.604,1.672 7.416,1.685 11.97,0.251 2.463,-0.775 3.82,2.759 -0.865,3.064 -1.871,0.122 -3.26,2.183 -3.769,3.325 -1.519,3.404 -1.191,5.342 -0.345,6.958 1.033,1.974 6.845,3.295 8.936,4.038 6.167,2.194 16.707,6.505 24.722,9.408 4.906,1.775 8.231,-2.319 8.644,-2.889 0.43,-0.594 0.812,-0.397 1.23,-0.274 1.226,0.36 0.899,0.923 1.692,1.29 0.792,0.368 2.054,1.006 3.5,0.547 1.004,-0.319 1.252,-2.271 0.819,-2.803 -0.87,-1.071 -2.749,-1.534 -3.643,-1.28 -0.671,0.192 -0.809,0.326 -1.883,-0.103 -0.56,-0.224 -0.466,-1.005 -1.019,-2.169 -0.596,-1.256 0.735,-1.622 2.669,-2.33 1.934,-0.709 5.924,-4.362 8.938,-4.652 2.437,-0.234 4.108,-0.598 5.378,2.68 0.829,2.14 2.571,5.818 5.318,7.52 3.718,2.301 9.597,1.268 12.807,-2.919 3.211,-4.188 5.297,-5.84 3.017,-9.912 0.606,-1.48 2.295,-2.863 0.424,-5.472 -1.871,-2.608 -4.209,-4.284 -5.576,-4.18 -1.367,0.102 -2.136,0.998 -2.411,1.317 -0.275,0.319 -2.285,-0.186 -1.2,-1.642 1.085,-1.457 3.678,-1.953 3.086,-3.461 -0.592,-1.51 -3.462,-3.625 -5.422,-4.833 -1.864,-1.15 -8.116,-1.91 -11.918,5.09 -0.647,1.192 -2.259,0.419 -1.585,-2.832 0.527,-2.54 -0.598,-4.585 -2.994,-5.854 C 35.556,9.315 35.498,8.34 36.726,7.56 c 1.687,-1.074 3.442,-2.049 5.215,-2.976 0.893,-0.466 1.883,-1.003 2.841,-1.027 1.373,-0.036 2.787,0.256 4.13,0.609 1.663,0.439 3.462,1.01 5.116,0.155 0.746,-0.385 1.519,-0.727 2.235,-1.162 1.698,-1.031 2.484,-2.081 2.563,-4.198 0.03,-0.82 -0.098,-1.732 -0.903,-2.003 -0.756,-0.254 -1.013,0.031 -1.4,0.679 -0.769,1.285 -1.924,2.062 -3.166,2.145 -0.635,0.042 -6.093,-0.46 -1.271,-2.522 1.329,-0.568 0.809,-2.218 -0.284,-1.801 -1.633,0.622 -3.838,0.827 -5.49,1.398 -0.671,0.232 -1.572,0.909 -2.046,1.402 C 42.442,0.156 40.149,0.34 37.696,0.544 35.7,0.71 33.916,0.991 32.217,1.89 30.255,2.927 29.688,2.865 28.38,1.026 c -1.215,-1.708 -3.455,-3.105 -4.682,-4.805 -2.146,-2.976 0.023,-4.143 1.829,-5.587 4.097,-3.276 4.831,-5.583 9.194,-9.154 1.43,-1.169 2.735,-2.119 4.645,-1.521 1.722,0.539 3.46,0.478 5.119,-0.144 1.545,-0.579 1.638,-1.48 1.432,-1.807 -0.141,-0.224 -0.596,-0.348 -1.331,-0.316 -0.589,0.027 -1.217,0.08 -1.425,-0.611 -0.215,-0.716 0.179,-1.248 0.833,-1.486 1.627,-0.592 3.275,-0.762 4.859,0.134 0.729,0.412 1.577,0.883 2.203,0.231 0.73,-0.763 0.088,-1.65 -0.501,-2.209 -1.294,-1.226 -1.437,-2.828 -2.775,-4.335 -1.428,-1.607 -3.077,-1.899 -5.026,-1.903 -0.653,-10e-4 -1.459,0.161 -2.003,0.535 -1.37,0.943 -2.662,2.011 -3.922,3.1 -0.739,0.64 -1.535,0.896 -2.473,0.802 -2.438,-0.243 -3.167,0.206 -3.963,2.579 -0.331,0.986 -0.885,1.66 -1.807,2.212 -2.095,1.254 -4.692,2.531 -6.764,4.033 -5.627,4.078 -8.525,6.891 -10.28,9.881 -1.266,2.156 -0.028,5.465 0.477,7.25 0.296,1.048 0.115,1.611 -0.327,2.284 C 11.071,1.137 5.939,0.395 0,0 m 52.041,15.881 c -0.812,1.381 -1.009,2.059 -1.082,3.56 -0.094,1.919 -2.269,0.714 -3.394,1.21 -2.241,0.988 -2.127,3.202 -4.048,3.248 -0.613,0.016 -1.413,-0.569 -1.48,-1.751 -0.034,-0.601 -0.258,-1.34 0.065,-2.131 1.69,-4.134 5.411,-6.195 8.686,-6 1.867,0.11 1.602,1.269 1.253,1.864 M 38.614,44.438 c -0.277,-0.778 0.258,-1.937 1.027,-2.224 0.827,-0.308 2.068,0.229 2.337,1.012 0.272,0.794 -0.237,1.864 -1.024,2.152 -1.028,0.376 -2.013,-0.019 -2.34,-0.94 M 36.138,55.35 c 0.797,-0.344 2.101,0.165 2.421,0.944 0.351,0.856 -0.13,1.915 -1.033,2.273 -0.982,0.39 -1.989,-0.033 -2.373,-0.996 -0.299,-0.747 0.206,-1.885 0.985,-2.221 m 2.383,-7.163 c -2.139,0.819 -2.707,4.046 0.056,5.242 2.813,0.524 4.149,-2.175 3.55,-3.603 -0.628,-1.5 -2.131,-2.204 -3.606,-1.639" /></g></g></g></g></svg>