<?xml version="1.0" encoding="UTF-8" standalone="no"?>
<svg
   xmlns:dc="http://purl.org/dc/elements/1.1/"
   xmlns:cc="http://creativecommons.org/ns#"
   xmlns:rdf="http://www.w3.org/1999/02/22-rdf-syntax-ns#"
   xmlns:svg="http://www.w3.org/2000/svg"
   xmlns="http://www.w3.org/2000/svg"
   viewBox="0 0 1379.1866 3178.5867"
   height="3178.5867"
   width="1379.1866"
   xml:space="preserve"
   id="svg2"
   version="1.1"><metadata
     id="metadata8"><rdf:RDF><cc:Work
         rdf:about=""><dc:format>image/svg+xml</dc:format><dc:type
           rdf:resource="http://purl.org/dc/dcmitype/StillImage" /></cc:Work></rdf:RDF></metadata><defs
     id="defs6"><clipPath
       id="clipPath20"
       clipPathUnits="userSpaceOnUse"><path
         id="path18"
         d="M 0,2383.937 H 1034.394 V 0 H 0 Z" /></clipPath><clipPath
       id="clipPath76"
       clipPathUnits="userSpaceOnUse"><path
         id="path74"
         d="M 0,2383.937 H 1034.394 V 0 H 0 Z" /></clipPath></defs><g
     transform="matrix(1.3333333,0,0,-1.3333333,0,3178.5867)"
     id="g10"><path
       id="path12"
       style="fill:#fab20b;fill-opacity:1;fill-rule:nonzero;stroke:none"
       d="M 0,0.001 H 1034.393 V 2383.937 L 0,2383.937 Z" /><g
       id="g14"><g
         clip-path="url(#clipPath20)"
         id="g16"><g
           transform="translate(685.1157,701.2339)"
           id="g22"><path
             id="path24"
             style="fill:#d3860c;fill-opacity:1;fill-rule:nonzero;stroke:none"
             d="m 0,0 c -0.304,49.357 30.588,98.69 5.62,86.69 -35.311,-16.97 -17.258,110.667 -3.803,204.142 1.283,8.915 3,17.334 3.667,29.334 0.666,12 -2.667,9 -6,26 -3.334,17 4.666,69.333 4.666,69.333 0,0 2,22.667 1.334,30.333 -0.667,7.667 -11,-12 -11,-12 0,0 -8.334,-6 -8,1 0.333,7 -6.334,10.667 -7.334,21.334 -1,10.666 3.667,44.667 3,53.667 -0.666,9 1,15.333 1.334,21.333 0.333,6 3.333,17.667 5.333,27.667 2,10 1.667,20 1.333,27 -0.333,7 -1.666,10.333 -2.333,19.666 -0.667,9.334 -1.333,16 -0.333,22.334 1,6.333 -5.667,7.333 -6.334,-1 -0.666,-8.334 -0.333,-13.667 0.667,-31.667 1,-18 -5.333,-45 -14.333,-58 -9,-13 -5.667,-15.667 -6,-29.667 -0.334,-14 -0.334,-10.666 -1.667,-22 -1.333,-11.333 -9,-19.667 -11,-27.667 -2,-8 -3.333,-10 -4.667,-17.666 -1.333,-7.667 -0.666,-7.334 -2.666,-12.334 -2,-5 -5,-11.666 -4.667,-19 0.333,-7.333 -1,-8.666 -2.333,-19 -1.334,-10.333 -1.667,-9.333 -2.667,-18 -1,-8.666 0,-10.333 1,-14.666 1,-4.334 -0.667,-11 -1.333,-16.667 -0.667,-5.667 -3.334,-8.333 -5.334,-6.333 -2,2 -3,6.333 -5,4.333 -2,-2 -2.666,-16 -4.666,-22 -2,-6 -11.818,-3.545 -13.667,-0.667 -4.327,6.737 0,27 -1.333,32 -1.334,5 -8.667,22.667 -8.667,22.667 0,0 -5,15.667 -4.333,32.333 0.666,16.667 -1.856,40.308 0.666,44 3.27,4.788 8.113,10.689 8.447,15.689 0.333,5 -0.447,5.978 1.887,19.311 2.333,13.334 4.666,6 4.666,26.001 0,20 3.334,17.666 2.667,25.666 -0.667,8 -1,6 -2.667,12.667 -1.666,6.667 -2,5 -3.333,10 -1.333,5 -4,8 -4,14.333 0,6.334 4.667,3.667 4.667,-3 0,-6.666 2.333,-12.333 6.333,-18.333 4,-6 6.167,3.833 5.667,7.333 -0.5,3.5 -2.5,17 -2,26 0.5,9 -0.5,8 3,47 3.5,39 4,15.5 6.5,34.5 2.5,19 15.5,34.5 19.5,50.5 4,16 -5,15 -10,34 -5,19 -11,18 -17,35 -6,17 -4,16.667 -1.667,31.667 2.333,15 -7.667,35 -6.333,51.333 1.333,16.334 6.666,10 8,21.334 1.333,11.333 0.666,32.666 0.333,36.333 -0.333,3.667 -3.667,13.667 -2.667,27 0.371,4.939 0.192,7.314 -0.196,8.91 0.041,0.169 0.081,0.34 0.114,0.535 1.333,8 -0.667,22.667 0,39.334 0.667,16.666 -6.394,30.666 0.47,60.666 6.863,30 8.783,22.988 12.117,37.655 3.333,14.667 10.746,-5.655 10.746,-18.988 0,-13.333 15.334,-9.333 14.667,4.667 -0.667,14 -6,25.468 -4.667,33.067 1.334,7.599 2.709,5.599 4.688,29.599 1.979,24 -6.688,59.334 -7.354,76.667 -0.667,17.333 6.628,13.333 7.647,34 1.019,20.667 -0.981,26 -4.981,51.333 -4,25.334 -8,27.334 -12,12 -4,-15.333 -10,-28 -12.666,-50 -2.667,-22 -7.334,-44 -4.667,-64.666 2.667,-20.667 -10,-24.667 -10.667,-8.667 -0.666,16 -5.862,24 -4.598,40 1.265,16 6.069,24.667 0,50 -6.068,25.333 -22.735,38.667 -22.068,50.667 0.666,12 -12,-2.667 -14,-14 -2,-11.334 -3.049,-23.91 -4.171,-30.148 -3.754,-20.877 -11.999,-30.462 -8.999,-51.229 3,-20.767 -2.104,-31.266 4.198,-58.265 6.301,-26.999 1.198,-36.766 0,-67.881 -1.198,-31.114 2.904,-57.949 10.972,-53.811 2.752,1.412 3.201,17.254 8.666,17.334 5.42,0.078 8.667,-42 6.667,-48.667 -2,-6.667 -1.198,-12 0.401,-23.333 0.638,-4.522 1.63,-6.302 0.583,-11.165 -0.053,-0.004 -4.776,-10.866 -10.902,-11.947 -3.026,-0.535 -12.666,3 -14.333,9.666 -1.667,6.667 -2.328,7.316 -3,23.334 -0.354,8.436 0.496,12.161 1.496,18.827 1,6.667 -2.829,10.506 -5.163,5.839 -2.333,-4.666 -3.333,-9.666 -9.666,-16 -6.334,-6.333 -10.334,1 -13,7.334 -2.667,6.333 -3.334,7.333 -4.334,12.333 -1,5 0.155,13.003 0,16.667 -0.663,15.69 -9,6.666 -10.333,3.333 -1.333,-3.333 -5.163,-9.809 -6,-24 -0.315,-5.335 -7.333,-7 -7.333,-2.667 0,4.334 -1,11.667 -3.667,9.334 -2.667,-2.334 -3,-6.334 -3.333,-19.667 -0.334,-13.333 -0.334,-23.667 -2,-34.333 -1.667,-10.667 -0.334,-16.667 -0.334,-30 0,-13.334 -4.21,-11.105 -6.666,-18.667 -6.163,-18.976 3.837,-39.226 -4.334,-71.667 -2.85,-11.318 -1,-18.666 -1.333,-26.333 -0.333,-7.667 1,-11.667 -5.667,-13.667 -6.666,-2 -1.666,-11.666 -1.666,-11.666 0,0 -1.667,-18.667 -3.334,-21.667 -1.666,-3 -6.666,12.667 -9.333,19 -2.667,6.333 -12.667,5.667 -14,-8 -1.333,-13.667 -8.167,-36.667 -13.667,-12.833 -1.124,4.871 -11.995,21.605 -16,16.166 -8.833,-12 -9.083,-47.583 -8.833,-55.333 0.25,-7.75 -2.191,-26.338 -4.316,-34.917 -2.524,-10.187 -9,-27 -10.334,-46.333 -1.333,-19.333 -1.574,-18.667 -1.574,-28.333 0,-9.667 -0.609,-25.417 0.057,-38.75 0.667,-13.334 6,-2.334 14.334,-3.667 8.333,-1.333 5,-2 8.666,-9.333 3.667,-7.334 0,-6 -2,-21 -2,-15 -3.666,-20.667 1,-33 4.667,-12.334 -1.666,-9 -0.666,-22 1,-13 -12.667,-27 -12.667,-39.001 0,-12 2.333,-17.333 3.333,-33 1,-15.666 -22.649,-83.25 -16.649,-96.583 5.386,-11.969 23.093,-218.515 20.795,-229.559 -3.225,-15.5 -13.975,-110.25 -6.975,-116 4.405,-3.619 8.187,-79.03 7.375,-90 -2.334,-31.509 -7.671,-65.334 0,-80 4.31,-8.241 -6.195,-84.354 0.305,-77.854 6.5,6.5 15.998,-30.841 20.166,-31.833 24.334,-5.792 18.238,124.667 24.071,132.167 4.921,6.327 13.126,-0.068 10.929,-15.834 -3.242,-23.28 -3.666,-26 -4.555,-34.816 -1.617,-16.059 8.872,-12.267 2.872,-15.767 -6,-3.5 1,-43.333 0.333,-53.333 -0.667,-10 9,-26.334 14,-21.334 5,5 6,10.334 7,17.667 1,7.333 1.333,12.333 4.333,32.667 3,20.333 4,26 8,38.666 4,12.667 -2.333,11.334 3.667,26 6,14.667 8.546,-8.063 17.879,3.604 9.333,11.667 6.952,99.99 8.121,107.5 2.879,18.5 19.879,29 26.631,-0.062 1.098,-4.728 1.27,-108.53 6.581,-116.771 20.879,-32.396 10.667,-37.334 26.455,-46.553 8.787,-5.132 3.631,51.494 5.333,68.616 0.619,6.219 3.667,14.666 7,24 3.333,9.333 15.667,2.833 16.667,0.333 1,-2.5 0.5,-13 1,-29 0.5,-16 -2,-10.5 -3,-29 -1,-18.5 -3,-25.5 1,-51.5 4,-26 0,-23 1,-33.5 1,-10.5 7,-27.5 7,-38 0,-10.5 0.5,-39.5 8,-28.5 7.5,11 -2.5,17.5 4.5,32 7,14.5 3,13 10,17 7,4 4.095,1.34 8,10 3.833,8.5 5.833,0.833 7.166,-4.833 1.334,-5.667 -4,-13.667 -2,-18.334 2,-4.666 10,-5.333 15,3.334 5,8.666 8,-2.667 8,-2.667 0,0 3.667,-20.333 2,-28.667 -1.666,-8.333 5.444,-8.409 6.334,-7 4.17,6.604 1.003,16.437 9.666,27.334 5.787,7.277 1.667,9.333 1.334,30.333 -0.334,21 -5.455,116.27 -0.122,141.937 5.334,25.667 0.667,91.667 1.334,103.333 C -1.637,-18.31 0.11,-17.92 0,0" /></g><g
           transform="translate(400.0615,2023.4243)"
           id="g26"><path
             id="path28"
             style="fill:#d3860c;fill-opacity:1;fill-rule:nonzero;stroke:none"
             d="m 0,0 c -1.62,-39.98 -5,-53 -7,-83 -2,-30 4,-53 7,-96 3,-43 -4.4,-72 -3.7,-123 0.7,-51 -1.862,-102 4.419,-132 6.281,-30 12.573,-61.667 16.573,-35.667 4,26 8.708,16.667 13.708,58.667 5,42 9,51 19,69 10,18 25,9 18,61 -7,52 -15,50 -7,66 8,16 3,13 14,41 11,28 5,15 8,58 3,43 -12,34.161 -7,70.081 C 81,-10 74,20 70,28 66,36 41.001,62 38,45 35,28 38,-4.299 34,-12.649 30,-21 23,-14 20,-1 17,12 0.728,17.958 0,0" /></g><g
           transform="translate(400.4365,1483.9243)"
           id="g30"><path
             id="path32"
             style="fill:#985c11;fill-opacity:1;fill-rule:nonzero;stroke:none"
             d="M 0,0 C -5.025,-19.384 -4.05,-45 -10.025,-72 -16,-99 -23,-143.5 -21.5,-153.5 c 1.5,-10 -2.5,-17 7,-17 9.5,0 9.754,-1 14.627,-10.5 C 5,-190.5 12,-189 7,-199 c -5,-10 -9,-10 -7.75,-21.25 1.015,-9.136 3.25,-21.25 2.25,-29.25 -1,-8 -4,-16.5 -4,-24 0,-7.5 -10.904,-9.768 -9.904,-26.269 1,-16.5 7.904,-36.731 0.404,-57.231 -7.5,-20.5 -16.5,-53 -13.5,-65.5 3,-12.5 16.5,-109 19.5,-152 3,-43 8,-71.5 3.5,-86 -4.5,-14.5 -9.185,-82.5 -2.5,-104 6.685,-21.5 1.75,-44.25 0,-62 -1.521,-15.434 -3.87,-76 -3.685,-88 0.185,-12 4.185,-45.5 12.185,-36 8,9.5 3.444,24 5.222,41 1.778,17 10.278,54 11.778,72 1.5,18 7.5,-4.5 7.5,-19 V -884 c 0,-6 7.5,-12.5 8.5,5 1,17.5 -1,13.5 0,33 1,19.5 1,47.5 8.5,68.5 7.5,21 21.625,58.681 19.5,94.5 -2.125,35.818 9.121,143.255 7.914,176.877 -1.207,33.622 -3.583,27.246 0.262,65.507 3.845,38.262 8.095,92.67 5.97,107.978 -2.125,15.308 -18.897,125.082 -14.646,173.971 4.251,48.89 7.838,79.783 8.333,111.667 0.495,31.884 2.062,73.949 -9.629,58.574 C 51.013,-3.8 54.393,-33.182 47.825,-48.438 43.292,-58.967 39.417,-57.333 35.375,-48 31.333,-38.667 36,-41.333 30.667,-28 25.333,-14.667 14,-12.667 12.667,-4.667 11.333,3.333 4.667,18 0,0" /></g><g
           transform="translate(476.9365,1611.9243)"
           id="g34"><path
             id="path36"
             style="fill:#985c11;fill-opacity:1;fill-rule:nonzero;stroke:none"
             d="M 0,0 C 0,-16.867 -9,-44 -6.5,-56.5 -4,-69 -0.009,-96.5 2.746,-109 5.5,-121.5 8.5,-148 8,-166.5 7.5,-185 4.551,-210.5 4.275,-227.5 4,-244.5 -1.576,-293 0.462,-304.5 2.5,-316 -1.009,-318 2.746,-335 c 3.754,-17 0.245,-28 0,-40.5 C 2.5,-388 12.11,-450.5 8.055,-483 4,-515.5 3.423,-570.5 0.962,-583.5 -1.5,-596.5 3.991,-671 2.746,-684 1.5,-697 -0.577,-789.5 0.962,-807.5 c 1.538,-18 1.752,-43.5 -3.462,-63 -2.299,-8.601 -6.413,-15.254 -10.5,-31.5 -2.547,-10.125 -5.917,-34 -4.958,-56 0.958,-22 2.458,-46 4.458,-62.5 2,-16.5 -2.5,-14 0.5,-35 3,-21 -0.5,-33.5 3,-39.5 3.5,-6 1.957,3.5 5.479,12.5 3.521,9 14.521,36 18.021,27 3.5,-9 5.5,-9 8.5,-1 3,8 3.5,15 3,26 -0.5,11 -1.25,75 10.5,86 14.714,13.774 24.613,0.25 24.25,-13.75 -0.363,-14 3.75,-16.702 4.417,-26.226 0.666,-9.524 -0.667,-16.857 4,-15.524 4.666,1.333 -1.241,10.333 2.706,20.551 3.947,10.217 0.2,37.118 -1.279,48.668 -1.478,11.55 2.793,35.094 1.323,47.089 -1.469,11.994 3.872,59.526 0.313,79.96 -3.559,20.434 -5.335,31.541 -5.335,49.753 0,18.213 0,44.868 1.776,66.634 1.777,21.768 -0.888,149.705 -3.998,173.249 -3.11,23.544 -4.886,35.538 -3.553,46.644 1.332,11.105 -7.996,87.069 -4.887,105.726 3.109,18.658 5.33,4.887 6.219,35.539 0.888,30.651 -0.889,33.316 0.444,46.643 1.333,13.327 -3.554,26.21 -8.884,35.094 -5.331,8.885 -11.55,11.55 -5.331,17.769 6.219,6.22 7.074,-2.069 9.946,0.181 2.873,2.25 4.373,7.25 3.873,9.25 -0.5,2 -2.745,2.75 -3.873,6.5 -1.127,3.75 -5.627,6.5 -4.877,10 0.75,3.5 0.505,1.25 4.877,6.5 4.373,5.25 4.373,9.75 2.123,11.75 -2.25,2 -10,13 -5.25,14 4.75,1 3.75,-2.75 6.25,-2.5 2.5,0.25 6,2.75 2.75,7.5 -3.25,4.75 -1.995,4.75 -5.873,7.5 -3.877,2.75 -3.877,2.5 -7.627,6.25 -3.75,3.75 -9,11.75 -3.25,12.75 5.75,1 16.5,-3.75 15,9.25 -1.5,13 0.75,31.75 -3,39.75 C 55,-80 50,-84.5 50.5,-73.25 51,-62 37.164,-46.333 41.75,-36 c 1.88,4.235 2.84,9.136 2,14.5 -2.434,15.553 -7.5,32.75 -7.25,42.5 0.25,9.75 -1.5,4.75 -2.5,20.75 -1,16 -3.603,31 -4.542,46.5 -0.94,15.5 -5.929,19.819 -7.19,15.75 -1.509,-4.871 -1.75,-2.25 -3,-19.75 C 18.018,66.75 16.25,61.5 17.5,52 18.75,42.5 14.75,38.75 15,25.25 15.25,11.75 12.75,5 11.25,0.25 9.75,-4.5 4.75,1.75 6.75,8 8.75,14.25 7,24.25 6,29.25 c -1,5 -1.75,11 -3,11 C 1.75,40.25 -1,37 -1.25,33 -1.5,29 -1.25,16 -1,12 -0.75,8 0,8.5 0,0" /></g><g
           transform="translate(564.77,918.1548)"
           id="g38"><path
             id="path40"
             style="fill:#985c11;fill-opacity:1;fill-rule:nonzero;stroke:none"
             d="m 0,0 c -3.528,-11.193 -9,-17.746 -6,-34.655 3,-16.908 4.263,-38.908 2.631,-50.908 -1.631,-12 -2.368,-20.121 0,-41.061 C -1,-147.563 8,-193.882 6,-221.723 c -2,-27.84 -5.973,-55.025 -6.225,-75.44 -0.411,-33.355 3.971,-41.578 10.725,-42.65 1.882,-0.3 7.538,6 9.5,6 11,0 20.5,2.5 19.077,-39.96 -0.756,-22.569 -4.017,-50.29 0.953,-69.29 4.97,-19 3.97,-38 5.97,-40 2,-2 12.5,6 11.5,18 -1,12 3.5,17 9.5,25.5 6,8.5 7,5.5 14,21.5 7,16 7.5,56 7,72.5 -0.5,16.5 -0.718,35.047 0.141,52.523 0.859,17.477 0.141,80.477 0,103.977 -0.141,23.5 6.859,33 6.859,42.5 0,9.5 -5.5,7.5 -7,18.5 -1.5,11 -2.5,55.5 0,65.5 2.5,10 0.5,35.5 -0.5,51 -1,15.5 9.5,87 7.5,117 -2,30 -13,48.241 -12,66.62 1,18.38 -13,-14.62 -9,-31.62 4,-17 -2,-39 -1,-51 1,-12 -2,-28 -1,-40 1,-12 -18,-23 -16,-40 C 58,-7.563 36,-7.436 31,0 26,7.437 24.303,54.183 21,57.937 10,70.437 5,47.437 4,39.437 3,31.437 5.486,17.407 0,0" /></g><g
           transform="translate(386.6333,1078.4243)"
           id="g42"><path
             id="path44"
             style="fill:#1f0d02;fill-opacity:1;fill-rule:nonzero;stroke:none"
             d="m 0,0 c -5.777,-27.471 -0.197,-26.5 7.803,-90.5 8,-64 7.5,-82.5 9,-101 1.5,-18.5 4,-55 0,-72 -4,-17 -9.726,-30 -7.363,-51.5 2.363,-21.5 6.183,-51 9.523,-69 3.34,-18 3.84,-32 6.84,-30.5 3,1.5 10.5,16.5 11,29.5 0.5,13 1.122,15 3.561,37.5 2.439,22.5 5.939,22 9.939,26 4,4 12.5,11.5 13.5,18 1,6.5 7,0.5 4.5,22 -2.5,21.5 0.75,56.5 3.875,85.5 3.125,29 0.375,30 0,50.5 -0.375,20.5 12.625,32 8.625,57.5 -4,25.5 1.531,29.5 0.766,49.5 -0.766,20 -6.266,30 -2.766,45 3.5,15 -9,15 -14.5,25 -5.5,10 -11,16.5 -17.5,26.5 -6.5,10 -27.75,4.5 -31.75,-22 C 11.053,9.5 3.47,16.5 0,0" /></g><g
           transform="translate(450.7153,1256.2319)"
           id="g46"><path
             id="path48"
             style="fill:#1f0d02;fill-opacity:1;fill-rule:nonzero;stroke:none"
             d="m 0,0 c -2.13,15.211 2.893,15.418 -3.266,31.642 0,0.001 -10e-4,0.002 -10e-4,0.003 -1.372,5.67 -2.795,10.532 -0.104,32.725 4,33 8.428,23.087 5.553,55.087 -2.875,32 5.165,53.659 4.039,59.568 -0.888,4.665 -3.149,4.732 -6,-7.166 -2.833,-11.824 -13.553,-8.667 -15.526,-3.167 -1.974,5.5 -4.725,11.182 -4.947,16.957 -0.223,5.776 -0.448,8.769 -3.466,15.327 -3.436,7.466 -8.973,8.885 -12.972,13.994 -3.998,5.109 -4.902,10.202 -7.996,10.217 -6.19,0.032 -4.665,-25.544 -8.593,-50.495 -3.15,-20.01 -6.5,-48.5 -10.5,-65.5 -4,-17 -8.55,-46 3.475,-46 12.025,0 8.025,-4 15.525,-15.5 7.5,-11.5 6.5,-16 12.5,-20 5.165,-3.443 8.109,-9.483 12.017,-16.837 4.953,-16.74 2.991,-36.75 2.598,-50.481 -0.392,-13.732 9.809,-38.45 6.67,-57.675 -3.138,-19.224 11.378,-25.502 10.986,-5.493 -0.392,20.01 0,58.46 -2.354,73.368 C -4.716,-14.517 2.13,-15.211 0,0" /></g><g
           transform="translate(569.4365,1440.9243)"
           id="g50"><path
             id="path52"
             style="fill:#985c11;fill-opacity:1;fill-rule:nonzero;stroke:none"
             d="m 0,0 c 2.578,-10.699 -23.44,-48.107 -12.458,-59.976 10.982,-11.867 18.304,-13.087 22.575,-14.918 4.271,-1.83 5.491,5.432 15.253,14.918 9.762,9.487 18.364,22.949 22.574,38.773 C 52.155,-5.378 43.063,0.152 36.962,9.304 30.861,18.456 30.251,10.524 22.319,28.828 14.388,47.132 15.702,77.747 16.922,93 18.143,108.253 -3.327,96.7 0.333,82.667 3.994,68.634 -7.616,43.393 -7.616,30.771 -7.616,18.15 -3.035,12.597 0,0" /></g><g
           transform="translate(578.7749,1354.6035)"
           id="g54"><path
             id="path56"
             style="fill:#633a17;fill-opacity:1;fill-rule:nonzero;stroke:none"
             d="m 0,0 c -5.726,-4.294 -6.672,6.321 -11.338,9.321 -4.667,3 -7,3.666 -10,0 -3,-3.667 -4.019,-7.667 -3.177,-15 0.843,-7.334 3.51,-16.667 2.51,-24.334 -1,-7.666 -4.019,-8.666 -2.51,-20.666 1.51,-12 -1.49,-11 1.843,-25 3.334,-14 -4.685,-37.334 -1.843,-56 2.843,-18.667 -3.419,-34.333 -0.621,-41.667 2.798,-7.333 1.112,-20.666 0.621,-35.333 -0.49,-14.667 -4.49,-25.332 2.177,-29.666 6.666,-4.334 3.333,17.003 5,24.834 1.666,7.832 -0.334,12.499 4,22.165 4.333,9.667 6.666,8.667 10,21 3.333,12.333 1.666,13.667 2.333,28.333 0.667,14.667 8.667,12.334 6,25.334 -2.667,13 -3.667,19.333 -5,31 -1.333,11.666 -1.667,13.333 3,15.333 4.667,2 6,1.333 7.667,16.333 1.666,15 0.333,30.667 0,42.334 -0.334,11.666 0.51,19.333 -3.078,19 C 3.995,6.987 2.667,2 0,0" /></g><g
           transform="translate(557.4365,1456.5908)"
           id="g58"><path
             id="path60"
             style="fill:#985c11;fill-opacity:1;fill-rule:nonzero;stroke:none"
             d="m 0,0 c 3.316,-7.674 8.333,-18.667 5.333,-27.667 -3,-9 -10.75,-16.333 -13.208,-10.666 -2.458,5.666 -1.208,5 0,14.666 1.208,9.667 1.458,12.667 0,17.334 C -9.333,-1.667 -8.292,6.333 -4.812,7.333 -1.333,8.333 -1.456,3.37 0,0" /></g><g
           transform="translate(374.3442,1745.4697)"
           id="g62"><path
             id="path64"
             style="fill:#d3860c;fill-opacity:1;fill-rule:nonzero;stroke:none"
             d="m 0,0 c -1.348,-43.96 -9.092,-138.545 0,-160.545 9.092,-22 7.536,-45 8.314,-66 0.778,-21 -2.406,-80.315 -8.314,-102.658 -5.908,-22.342 -9.501,-104.342 -5.704,-127.009 3.796,-22.667 8.279,-98 5.704,-106.666 -2.574,-8.667 -15.134,-8.98 -11.932,-21.791 3.203,-12.813 3.08,-35.785 -0.519,-45.118 -3.599,-9.333 -12.292,-9.791 -9.547,-23.974 2.746,-14.185 5.033,-26.539 4.576,-37.978 -0.458,-11.439 5.591,-17.845 11.718,-46.214 6.126,-28.369 -18.439,-46.092 -16.821,-58.592 1.617,-12.5 -3.271,-34.5 -0.077,-62 3.194,-27.5 -4.306,-44 -9.306,-49 -5,-5 -6.5,20.5 -5,32.5 1.5,12 1.39,10.057 -0.554,32.029 -1.946,21.971 4.444,23.971 0,43.971 -4.446,20 -9.946,5.5 -5.946,34.5 4,29 4,27 1.5,57 -2.5,30 -11.5,26 -13.5,15.5 -2,-10.5 -4.5,-8 -6.5,1 -2,9 -0.5,16.5 0,29.5 0.5,13 13,110.833 8,127.333 -5,16.5 -11.43,25.933 -8.061,45.167 10.511,60 -1.119,67.5 13.395,95.5 8.442,16.286 9.166,43.5 4.666,58.5 -4.5,15 2.471,130.503 5,148 2,13.833 5.224,-1.383 7.5,-5 4.911,-7.804 6,4.5 7,23 1,18.5 0.5,68 0.5,81.5 0,13.5 -5.867,32 -3.433,42 2.433,10 9.933,48.5 8.433,65 -1.5,16.5 -0.5,70 2.5,83.5 3,13.5 7,-4 8,-14.5 1,-10.5 -5.5,-19 -1,-38.5 C -4.908,30.455 0.646,21.036 0,0" /></g><g
           transform="translate(407.124,1979.0049)"
           id="g66"><path
             id="path68"
             style="fill:#985c11;fill-opacity:1;fill-rule:nonzero;stroke:none"
             d="m 0,0 c -5.104,-46.241 -9.959,-75.619 0,-125.669 9.959,-50.051 -11.204,-103.624 0,-135.969 11.204,-32.344 6.81,9.89 12.728,23.224 5.918,13.333 1.918,26.666 11.918,35.333 10,8.667 15.333,10 16,30 0.667,20 2.083,18.667 11.041,42.667 8.959,24 -0.374,68.666 -5.041,104 C 41.979,8.919 45.979,24.954 39.979,33.27 33.979,41.586 28.063,20.252 28.688,8.919 29.312,-2.414 2.71,24.554 0,0" /></g></g></g><g
       id="g70"><g
         clip-path="url(#clipPath76)"
         id="g72"><g
           transform="translate(359.2349,1731.3364)"
           id="g78"><path
             id="path80"
             style="fill:#985c11;fill-opacity:1;fill-rule:nonzero;stroke:none"
             d="m 0,0 c -1.86,0.523 -1.861,1.48 0.8,2.148 4.341,1.091 2.507,2.271 4.453,7.934 0.917,2.667 3.656,3.408 7.786,3.066 3.922,-0.324 5.525,-1.518 6.959,-3.126 0.974,-1.091 3.451,-5.219 1.858,-8.847 -1.592,-3.627 -1.131,-5.183 0.107,-6.51 1.239,-1.327 4.654,-4.56 5.454,-1.102 0.216,0.928 -1.403,9.559 -1.226,14.159 0.177,4.601 4.955,6.075 8.848,6.724 3.141,0.524 8.67,1.062 12.739,-0.708 4.07,-1.769 8.317,-7.962 7.078,-10.439 -1.238,-2.478 -1.828,-2.065 -1.12,-3.834 0.707,-1.77 1.828,-1.298 2.89,-5.545 1.062,-4.246 5.308,-11.501 4.423,-16.455 -0.884,-4.955 -0.53,-7.078 -2.123,-8.671 -1.593,-1.592 -2.654,0.354 -2.654,-4.777 0,-5.132 1.416,-0.708 3.716,-3.008 2.3,-2.301 3.067,-10.469 -1.77,-13.212 -0.967,-0.548 -4.322,-0.96 -9.938,-2.654 -2.82,-0.851 -6.326,-2.566 -8.405,-1.239 -1.521,0.971 -2.069,1.85 -2.167,1.504 -0.1,-0.346 0.25,-1.917 -0.723,-3.863 -1.946,-3.893 -9.555,-16.279 -11.855,-18.579 -0.878,-1.032 -3.821,-3.898 -5.073,-6.489 -0.797,-1.649 2.95,-8.139 6.134,-10.262 3.185,-2.123 7.331,-5.328 8.14,-6.37 1.121,-1.445 0.413,-2.064 0.118,-3.185 -0.12,-0.456 5.19,-2.595 5.662,-3.775 0.472,-1.179 -3.303,-5.308 -5.426,-7.668 -2.123,-2.359 -4.247,-7.667 -6.606,-8.847 -2.36,-1.18 -3.657,-0.472 -3.067,3.067 0.59,3.539 1.769,6.724 1.769,8.375 0,1.652 -1.062,1.652 -1.062,1.652 0,0 -1.415,-0.708 -2.477,0.472 -1.047,1.164 -2.833,3.824 -3.681,2.998 -0.79,-0.77 2.555,-12.825 2.679,-13.32 0.236,-0.944 -1.298,-1.297 -1.298,-1.297 0,0 1.415,-3.303 0.59,-4.601 -0.826,-1.298 -4.955,-0.59 -11.914,-1.652 -6.96,-1.061 -10.145,2.242 -9.556,3.068 0.59,0.826 8.494,4.128 8.258,6.016 -0.236,1.887 -1.18,1.415 -2.241,6.016 -1.062,4.601 -6.636,26.247 -5.574,29.668 1.061,3.42 5.839,12.474 8.405,17.163 1.026,1.875 1.946,5.25 3.361,7.845 1.416,2.595 0.532,6.547 0.178,7.726 -0.354,1.18 -2.124,-0.589 -3.068,-2.005 -0.943,-1.415 -1.049,-1.893 -1.717,-5.256 -0.669,-3.364 -3.119,-5.136 -4.082,-4.299 -0.963,0.837 -1.836,4.022 -1.693,5.285 0.143,1.262 1.161,3.072 2.892,5.214 3.48,4.306 3.834,10.675 5.721,14.391 1.457,2.869 -1.297,3.539 -1.651,7.078 -0.354,3.539 -2.035,9.172 -1.504,11.56 0.53,2.389 1.769,4.778 5.662,7.388 1.519,1.018 1.371,2.123 -0.443,2.035 -1.813,-0.089 -3.213,-0.459 -4.113,0.044 -1.372,0.767 -1.257,2.733 -2.455,2.964 -1.151,0.221 -1.047,0.885 -0.686,2.057 0.67,2.174 0.324,3.236 0.324,3.236 0,0 -2.805,-0.054 -5.636,0.742" /></g><g
           transform="translate(548.9907,1557.0161)"
           id="g82"><path
             id="path84"
             style="fill:#985c11;fill-opacity:1;fill-rule:nonzero;stroke:none"
             d="m 0,0 c 0.583,1.826 0.15,3.095 -1.526,3.391 -11.211,1.978 -20.611,-6.148 -20.319,-18.095 0.152,-6.215 6.288,-15.462 16.163,-15.65 6.49,-0.125 14.796,3.05 17.349,13.209 C 13.583,-9.525 8.824,-2.108 5.002,0.424 4.237,0.93 3.306,0.678 2.374,-1.526 1.716,-3.08 0.004,-6.443 -0.654,-8.479 -0.91,-9.268 -1.139,-9.703 -0.739,-10.29 c 0.773,-1.134 1.384,-2.46 0.801,-4.602 -0.497,-1.825 -3.276,-5.073 -7.265,-3.141 -3.573,1.73 -3.51,5.809 -1.706,7.95 1.7,2.018 3.881,1.934 4.436,1.871 0.551,-0.061 1.143,-0.226 1.652,1.144 C -2.155,-5.275 -0.577,-1.81 0,0 m 51.552,-16.047 c -0.648,-0.198 -2.422,-0.919 -2.078,-1.977 0.401,-1.232 0.984,-3.063 1.767,-3.621 2.204,-1.568 6.605,-1.8 7.961,-1.928 1.357,-0.127 3.024,0.214 3.193,0.892 0.169,0.678 -1.191,1.294 -0.966,2.396 0.225,1.102 0.931,1.948 1.19,2.824 0.275,0.925 0.025,0.951 -0.49,1.868 -0.379,0.674 -0.64,1.211 -1.376,1.111 -0.649,-0.088 -8.084,-1.224 -9.201,-1.565 m 6.396,17.725 c -0.824,-0.408 -0.312,-1.617 0.197,-2.446 0.509,-0.828 5.549,-7.161 6.171,-7.896 0.622,-0.734 2.903,0.122 4.621,-1.745 1.641,-1.783 1.53,-3.779 0.338,-5.546 -1.044,-1.546 -2.844,-1.771 -3.825,-1.757 -0.848,0.011 -0.67,-1.244 -1.002,-1.922 -0.519,-1.057 -1.12,-1.16 -0.751,-2.581 0.183,-0.708 0.43,-1.666 0.199,-2.333 -0.129,-0.375 -0.367,-0.727 -1.043,-0.775 -0.651,-0.047 -0.904,0.226 -2.035,0.509 -2.726,0.681 -5.617,0.849 -6.633,0.702 -0.846,-0.122 -1.289,-0.366 -0.457,-1.202 0.833,-0.837 4.419,-4.689 10.968,-5.021 10.277,-0.521 17.387,7.347 18.017,15.09 0.476,5.853 -1.535,12.321 -7.603,16.094 -3.176,1.974 -9.585,4.582 -17.162,0.829 M 56.06,-1.938 c -0.859,0.963 -1.866,0.841 -2.626,0.098 -2.435,-2.38 -4.267,-6.302 -4.598,-11.159 -0.065,-0.96 0.914,-0.908 2.605,-0.851 1.691,0.057 8.95,1.249 9.572,1.362 0.622,0.113 1.659,1.573 0.981,2.971 -1.192,2.46 -4.383,5.839 -5.934,7.579 m -6.975,4.239 c 0.041,-1.018 -3.155,-3.084 -3.607,-3.649 -0.452,-0.565 -1.263,-5.53 -1.659,-7.339 -0.395,-1.809 0.448,-2.258 0.722,-0.868 1.103,5.595 4.949,10.357 6.493,11.814 1.23,1.161 0.528,2.407 0.076,3.085 C 50.658,6.022 48.045,9.662 47.423,9.548 46.802,9.436 47.028,8.418 46.067,6.065 46.335,5.051 49.002,4.374 49.085,2.301 M 12.618,17.373 c -0.103,-0.475 1.762,-2.094 2.84,-3.442 1.028,-1.285 14.728,-17.834 15.801,-18.795 1.074,-0.961 2.486,-2.092 4.352,-0.226 1.017,1.018 1.819,2.106 1.85,4.861 0.036,3.098 0.368,6.66 -0.386,8.017 -0.755,1.356 -1.809,2.42 -2.751,3.427 -1.396,1.493 -6.883,2.82 -11.361,4.022 -7.015,1.884 -10.138,3.09 -10.345,2.136 m 11.125,7.435 c -0.435,0.921 -0.34,1.474 -1.922,1.387 -1.583,-0.087 -6.952,-0.443 -8.026,-0.689 -1.074,-0.246 -0.561,-1.753 -1.243,-2.789 -0.439,-0.666 -0.223,-1.419 0.722,-1.661 1.189,-0.304 13.094,-3.111 14.54,-3.455 0.871,-0.207 1.012,0.444 0.277,1.631 -0.735,1.186 -3.822,4.46 -4.348,5.576 m 17.464,1.385 c -2.288,-0.089 -5.725,-0.332 -6.785,-0.848 -1.259,-0.613 2.305,-1.144 2.63,-4.069 0.349,-3.137 1.536,-5.922 1.95,-5.286 0.209,0.319 1.272,4.184 2.205,6.218 0.932,2.035 1.872,4.058 0,3.985 M 30.101,40.521 c -2.046,-1.911 -1.019,-6.149 0.782,-5.132 1.801,1.017 7.187,3.181 8.374,3.605 1.186,0.424 0.678,1.272 -2.12,1.527 -2.798,0.254 -5.764,1.186 -7.036,0 M 10.771,27.889 c 2.12,0.423 10.513,2.204 13.44,4.216 2.928,2.012 -1.334,0.903 -4.047,-0.137 C 17.451,30.928 10.416,29.347 8.906,28.736 6.601,27.804 8.652,27.465 10.771,27.889 M 4.501,57.361 C 3.434,57.24 1.72,56.521 1.227,57.216 c -0.523,0.737 1.231,5.959 2.679,8.478 1.988,3.46 7.262,6.65 12.104,4.053 4.092,-2.196 6.193,-5.624 3.571,-7.624 -0.799,-0.61 -0.694,-2.249 0.893,-2.514 1.588,-0.264 1.63,4.593 5.812,4.027 2.486,1.583 3.005,7.204 7.168,7.204 4.162,0 10.299,-2.398 13.351,-3.98 3.052,-1.583 3.291,-4.313 4.478,-5.556 1.187,-1.244 4.013,-2.534 4.892,-4.81 1.41,-3.649 -2.677,-5.863 -0.248,-8.569 3.87,-4.313 5.727,-8.442 5.252,-12.135 -0.339,-2.639 -1.244,-4.036 -4.243,-6.233 -2.572,-1.884 -3.974,-5.37 -4.991,-7.575 -1.017,-2.204 -3.278,-5.708 -3.504,-7.629 -0.226,-1.922 1.13,-3.165 2.091,-4.465 C 51.493,8.587 52.521,7.32 53.047,6.822 53.834,6.076 55.205,5.667 56.748,6.365 65.27,10.22 73.477,7.714 77.681,4.827 86.693,-1.362 87.813,-9.735 87.457,-15.4 86.776,-26.268 77.183,-35.43 64.22,-35.05 c -9.15,0.268 -15.453,7.196 -18.012,12.313 -0.452,0.904 -4.323,-0.891 -5.34,-0.834 -1.018,0.056 -2.431,1.13 -3.731,0.621 -1.3,-0.508 -3.786,-2.091 -6.951,-1.808 -3.165,0.282 -3.448,1.526 -1.696,2.487 1.752,0.96 0.565,0.169 1.752,0.96 1.187,0.792 2.939,2.035 3.165,2.544 0.226,0.509 -1.206,1.759 -0.565,4.747 0.169,0.791 -0.189,2.034 -1.3,3.448 C 29.677,-8.198 13.303,11.08 12.286,12.21 11.269,13.341 10.908,13.909 9.28,13.061 8.285,12.542 7.31,9.648 6.669,8.365 5.788,6.598 5.761,5.552 6.809,4.92 12.404,1.548 18.485,-6.655 16.442,-17.967 14.866,-26.696 6.377,-35.307 -5.647,-35.096 c -12.841,0.226 -20.898,11.275 -20.968,20.856 -0.112,15.149 12.883,24.502 25.146,22.222 4.237,-0.787 4.495,1.112 5.374,2.998 1.374,2.951 4.214,8.818 4.973,10.381 0.63,1.296 0.113,2.091 -0.734,2.261 -0.848,0.169 -1.414,-1.64 -2.657,-1.301 -1.243,0.34 -2.317,1.187 -3.617,1.583 -1.3,0.396 -1.017,1.243 -1.017,2.883 0,1.638 -0.453,4.069 1.299,4.86 1.753,0.791 3.448,-0.102 4.578,0.458 1.131,0.56 3.392,0.616 6.274,1.916 2.882,1.3 8.252,3.787 9.438,4.973 1.187,1.187 1.356,4.239 0.339,6.274 -1.017,2.035 -2.77,2.965 -4.622,3.693 -1.852,0.727 -2.781,1.382 -5.225,0.066 -3.869,-2.084 -4.456,0.874 -5.343,1.762 -0.86,0.859 -1.048,0.093 -1.656,0.522 -0.542,0.382 -0.084,0.976 -0.262,2.851 -0.152,1.599 -0.498,2.221 -1.172,3.199" /></g><g
           transform="translate(493.8789,1016.0737)"
           id="g86"><path
             id="path88"
             style="fill:#1f0d02;fill-opacity:1;fill-rule:nonzero;stroke:none"
             d="m 0,0 c 0.917,-3.578 2.443,-10.318 5.011,-15.376 2.901,-5.715 2.475,-4.214 2.61,0.187 0.1,3.275 0.463,8.108 0,10.193 C 6.901,-1.759 -0.96,3.744 0,0 m -6.132,72.915 c 0.231,1.035 -1.632,6.673 0.288,9.697 1.92,3.025 0.912,2.88 0.336,3.649 -0.576,0.767 -3.312,4.32 -2.929,5.52 0.385,1.2 1.969,8.208 10.562,11.906 8.592,3.696 21.122,2.351 25.922,-8.93 4.8,-11.28 0.768,-18.77 -1.344,-19.058 -2.113,-0.288 -4.513,1.105 -4.513,1.105 0,0 0.289,-3.456 -2.64,-4.945 -2.928,-1.488 -3.84,-4.944 -3.168,-5.904 0.672,-0.96 6.289,-6.212 8.16,-10.801 2.77,-6.791 2.737,-16.658 2.593,-20.018 -0.144,-3.361 -1.968,-6.097 0.72,-7.729 2.688,-1.632 4.176,-2.592 5.665,-5.52 1.487,-2.928 2.928,-7.824 6.096,-8.689 3.168,-0.864 5.472,1.392 6.817,-2.352 1.343,-3.744 2.014,-17.063 1.68,-20.258 -0.432,-4.128 -1.441,-9.217 -6.145,-9.265 -6.675,-0.068 -7.489,8.641 -7.056,11.377 0.431,2.737 -3.79,4.333 -3.889,1.393 -0.144,-4.273 -2.16,-8.738 -2.784,-12.625 -0.624,-3.889 -0.432,-14.449 -0.816,-18.242 -0.384,-3.792 -1.104,-12.914 0.144,-17.522 1.248,-4.608 6.624,-17.138 7.632,-23.185 1.009,-6.049 2.929,-20.403 3.121,-22.899 0.192,-2.496 -0.192,-7.921 0.48,-9.984 0.672,-2.065 0.864,-6.194 1.2,-9.65 0.336,-3.456 -1.584,-6.384 -3.072,-8.976 -1.489,-2.592 0.239,-6.049 -5.761,-6.385 -6,-0.336 -12.145,0.097 -12.097,4.032 0.048,3.937 4.272,1.536 6,6.721 1.729,5.184 0.865,4.608 1.585,8.976 0.72,4.37 1.008,9.505 0.576,10.898 -0.432,1.392 -2.353,-1.248 -3.36,1.728 -1.009,2.976 -0.337,8.113 -1.585,13.009 -1.248,4.897 -3.792,15.169 -5.952,20.306 -2.16,5.137 -6.377,22.207 -6.281,25.518 0.096,3.313 -1.535,12.794 -1.583,13.514 -0.048,0.721 -1.467,0.966 -4.089,0.86 -6.909,-0.281 -12.865,-2.929 -18.194,-0.96 -5.328,1.967 -9.916,5.533 -8.881,7.68 1.297,2.689 2.785,2.304 5.761,2.16 2.976,-0.144 10.431,3.021 11.007,3.741 0.576,0.72 -0.801,2.171 -1.759,4.233 -0.372,0.803 -6.35,-0.352 -7.358,3.777 -1.008,4.128 -5.778,9.131 -6.978,12.971 -1.201,3.841 -7.297,11.617 -9.985,14.978 -2.689,3.36 -5.953,8.592 -2.113,13.153 3.841,4.56 10.033,5.184 15.074,2.64 5.04,-2.544 8.228,-5.911 11.808,-3.185 3.372,2.566 1.338,10.065 0.617,13.281 -0.72,3.217 -1.327,3.318 -1.583,7.414 -0.255,4.096 -0.275,6.66 -3.475,7.876 -3.2,1.216 -9.271,4.2 -12.728,8.361 -3.456,4.161 -11.713,10.945 -14.081,13.378 -2.368,2.431 -2.752,0.383 -6.976,4.223 -4.225,3.841 -4.577,4.545 -6.913,6.017 -2.336,1.472 -4.544,3.936 -4.705,4.545 -0.16,0.607 -3.712,1.023 -4.384,2.208 -0.672,1.183 4.288,2.176 7.873,1.599 3.584,-0.575 5.696,-0.895 7.616,-3.04 1.92,-2.143 1.825,-2.528 4.801,-5.088 2.976,-2.56 7.552,-6.241 12.289,-8.672 4.736,-2.433 14.936,-8.11 17.025,-9.986 3.136,-2.816 5.185,-3.008 5.729,-0.576" /></g><g
           transform="translate(631.6387,726.4849)"
           id="g90"><path
             id="path92"
             style="fill:#d3860c;fill-opacity:1;fill-rule:nonzero;stroke:none"
             d="m 0,0 c 0.378,-5.704 -2.139,-10.184 -1.31,-18.549 0.83,-8.364 1.364,-15.14 1.306,-19.342 -0.058,-4.201 -2.313,-11.106 -2.336,-13.566 -0.04,-4.178 -0.568,-7.689 -2.076,-10.755 -1.507,-3.067 -0.142,-8.174 -0.638,-13.421 -0.496,-5.247 -1.076,-12.821 1.197,-15.299 2.273,-2.477 4.818,-3.464 10.223,-5.773 5.406,-2.309 18.601,-8.951 20.995,-10.65 2.394,-1.7 2.365,-2.676 0.576,-3.666 -1.788,-0.991 -2.125,-2.512 -1.796,-4.607 0.964,-6.133 -3.048,-3.38 -9.248,-0.396 -6.201,2.984 -17.134,11.759 -19.563,13.362 -2.429,1.602 -6.447,2.909 -9.245,4.702 -2.798,1.792 -2.072,3.774 -1.214,5.818 1.676,3.993 0.203,8.041 -1.055,11.792 -1.258,3.751 -4.879,9.136 -3.254,15.669 1.625,6.534 3.375,10.115 2.92,12.913 -0.456,2.8 -1.533,2.66 -3.821,0.765 -2.973,-2.461 -4.807,-4.454 -6.258,-7.252 -2.989,-5.761 -7.825,-9.445 -10.478,-15.229 -2.654,-5.785 0.704,-9.516 1.843,-11.978 2.701,-5.839 7.272,-10.688 9.464,-13.573 2.193,-2.886 -2.408,-4.598 -1.012,-8.033 0.593,-1.46 -0.981,-8.173 -1.73,-7.618 -2.525,1.872 -10.816,22.836 -12.742,26.282 -1.927,3.445 -6.455,8.499 -7.799,11.784 -1.344,3.285 1.282,3.225 4.041,5.234 2.759,2.008 4.156,8.226 6.056,14.627 1.9,6.402 5.152,9.394 7.961,10.738 2.808,1.343 3.161,0.244 4.03,4.313 0.868,4.068 -0.023,4.87 1.792,12.012 0.583,2.297 1.622,4.797 1.05,6.029 -1.672,3.605 -1.684,7.417 -0.251,11.971 0.776,2.463 -2.758,3.82 -3.064,-0.865 -0.122,-1.872 -2.182,-3.26 -3.325,-3.769 -3.404,-1.519 -5.342,-1.191 -6.958,-0.346 -1.973,1.033 -3.294,6.846 -4.038,8.938 -2.194,6.167 -6.505,16.706 -9.407,24.721 -1.776,4.906 2.318,8.231 2.889,8.644 0.594,0.43 0.396,0.812 0.273,1.23 -0.36,1.225 -0.922,0.899 -1.29,1.692 -0.368,0.792 -1.006,2.054 -0.546,3.499 0.319,1.005 2.271,1.253 2.803,0.82 1.07,-0.87 1.533,-2.75 1.279,-3.643 -0.191,-0.671 -0.326,-0.809 0.103,-1.883 0.224,-0.56 1.006,-0.466 2.17,-1.019 1.255,-0.596 1.621,0.735 2.33,2.669 0.708,1.934 4.362,5.923 4.652,8.939 0.234,2.436 0.598,4.106 -2.68,5.377 -2.141,0.829 -5.819,2.571 -7.52,5.318 -2.302,3.718 -1.269,9.597 2.919,12.807 4.187,3.211 5.839,5.297 9.911,3.017 1.48,0.606 2.863,2.294 5.472,0.424 2.608,-1.871 4.284,-4.209 4.181,-5.576 -0.103,-1.367 -0.998,-2.136 -1.318,-2.411 -0.319,-0.275 0.186,-2.285 1.643,-1.2 1.457,1.085 1.952,3.678 3.461,3.085 1.51,-0.591 3.624,-3.461 4.833,-5.421 1.149,-1.864 1.909,-8.117 -5.091,-11.918 -1.192,-0.647 -0.419,-2.259 2.832,-1.585 2.54,0.527 4.585,-0.599 5.855,-2.994 0.688,-1.298 1.663,-1.356 2.444,-0.128 1.074,1.687 2.048,3.442 2.975,5.215 0.467,0.893 1.003,1.882 1.028,2.841 0.036,1.373 -0.256,2.786 -0.61,4.129 -0.438,1.664 -1.01,3.462 -0.154,5.116 0.385,0.746 0.726,1.52 1.161,2.237 1.032,1.697 2.081,2.482 4.199,2.561 0.82,0.031 1.732,-0.097 2.002,-0.902 C 3.296,57.167 3.011,56.909 2.364,56.522 1.079,55.754 0.301,54.599 0.219,53.357 0.176,52.722 0.679,47.264 2.74,52.086 3.308,53.415 4.958,52.896 4.542,51.802 3.919,50.169 3.715,47.964 3.144,46.312 2.912,45.641 2.234,44.739 1.741,44.266 -0.156,42.442 -0.34,40.148 -0.543,37.695 -0.709,35.699 -0.991,33.916 -1.889,32.217 -2.926,30.255 -2.865,29.688 -1.025,28.38 0.682,27.165 2.08,24.925 3.779,23.698 c 2.976,-2.146 4.143,0.023 5.587,1.828 3.276,4.098 5.584,4.831 9.155,9.195 1.169,1.429 2.118,2.735 1.521,4.645 -0.54,1.722 -0.479,3.459 0.143,5.118 0.579,1.545 1.481,1.639 1.808,1.433 0.223,-0.141 0.347,-0.596 0.315,-1.331 -0.026,-0.589 -0.08,-1.217 0.611,-1.425 0.716,-0.216 1.248,0.179 1.486,0.833 0.593,1.627 0.763,3.275 -0.133,4.859 -0.413,0.728 -0.884,1.578 -0.231,2.203 0.762,0.729 1.649,0.089 2.208,-0.501 1.226,-1.294 2.828,-1.437 4.335,-2.776 1.607,-1.427 1.9,-3.076 1.903,-5.025 0.002,-0.652 -0.16,-1.459 -0.534,-2.003 -0.944,-1.37 -2.011,-2.662 -3.101,-3.922 -0.64,-0.739 -0.896,-1.535 -0.802,-2.474 0.243,-2.437 -0.206,-3.166 -2.579,-3.962 -0.985,-0.331 -1.66,-0.885 -2.212,-1.807 -1.254,-2.095 -2.53,-4.691 -4.032,-6.765 C 15.148,16.195 12.335,13.297 9.345,11.541 7.19,10.276 3.88,11.515 2.095,12.019 1.047,12.314 0.484,12.134 -0.189,11.692 -1.136,11.071 -0.394,5.938 0,0 m -15.88,52.041 c -1.382,-0.812 -2.06,-1.009 -3.56,-1.082 -1.92,-0.095 -0.715,-2.27 -1.211,-3.394 -0.988,-2.242 -3.202,-2.127 -3.248,-4.048 -0.015,-0.614 0.569,-1.413 1.751,-1.48 0.602,-0.034 1.341,-0.259 2.132,0.065 4.134,1.689 6.194,5.411 6,8.685 -0.111,1.867 -1.269,1.603 -1.864,1.254 M -44.438,38.613 c 0.779,-0.276 1.938,0.259 2.224,1.028 0.308,0.827 -0.229,2.068 -1.011,2.337 -0.795,0.272 -1.865,-0.237 -2.153,-1.025 -0.376,-1.027 0.02,-2.012 0.94,-2.34 M -55.35,36.138 c 0.344,0.797 -0.164,2.101 -0.943,2.421 -0.857,0.35 -1.915,-0.13 -2.274,-1.034 -0.389,-0.981 0.033,-1.988 0.996,-2.373 0.748,-0.298 1.885,0.206 2.221,0.986 m 7.163,2.383 c -0.818,-2.139 -4.045,-2.708 -5.242,0.056 -0.523,2.813 2.176,4.149 3.603,3.55 1.5,-0.628 2.204,-2.132 1.639,-3.606" /></g><g
           transform="translate(696.2339,1901.8931)"
           id="g94"><path
             id="path96"
             style="fill:#d3860c;fill-opacity:1;fill-rule:nonzero;stroke:none"
             d="m 0,0 c -1.107,3.663 -0.563,6.965 -2.422,9.136 -1.793,2.093 -2.797,1.669 -5.333,3.772 -2.537,2.103 -5.436,7.251 -7.393,9.499 -1.957,2.248 -5.871,8.267 -10.074,11.385 -4.204,3.118 -1.957,3.553 -5.508,7.977 -3.552,4.423 -13.119,17.186 -15.076,19.434 -1.957,2.248 -1.159,2.756 -0.942,4.931 0.218,2.176 0.435,7.252 0.145,10.878 -0.29,3.625 0.508,11.457 1.087,13.56 0.58,2.103 1.595,2.321 4.711,0.435 3.117,-1.885 10.075,-4.786 11.669,-6.309 1.594,-1.523 7.791,-4.024 9.277,-6.091 0.744,-1.036 2.319,-1.088 2.319,-1.088 2.754,-3.045 5.001,-3.915 5.943,-4.931 0.943,-1.015 2.139,0.87 0.725,2.248 -1.413,1.378 -2.138,2.321 -2.138,2.683 0,0.363 6.668,0.907 8.045,1.414 1.377,0.508 3.334,2.284 3.044,3.227 -0.29,0.943 -4.928,1.088 -7.646,0.979 -2.718,-0.109 -4.82,0.036 -4.965,0.218 0,0 -1.296,0.482 -2.029,1.142 -1.087,0.979 -6.632,4.623 -9.023,6.744 -2.392,2.121 -8.154,6.853 -10.437,9.409 -2.283,2.556 -4.161,4.452 -6.75,6.449 -2.152,1.66 -6.079,2.579 -7.057,2.905 -0.979,0.327 -2.896,0.526 -3.153,1.632 -0.415,1.788 0.936,2.437 1.957,3.862 1.214,1.694 1.576,4.568 2.174,6.036 0.599,1.469 2.284,4.351 1.087,7.832 -1.195,3.481 -4.076,5.221 -7.338,6.799 -3.261,1.577 -3.587,-0.327 -6.142,-1.088 -2.555,-0.762 -4.349,-3.318 -5.164,-5.167 -0.816,-1.849 -1.142,-4.242 -0.163,-9.191 0.978,-4.95 0.217,-3.699 -0.472,-3.1 -2.291,1.99 -4.13,2.32 -5.797,5.438 -1.667,3.118 -2.61,4.133 -4.929,6.599 -2.319,2.466 0.435,4.279 -4.494,8.195 -2.703,2.147 -1.522,4.496 -3.986,6.961 -2.464,2.465 -1.087,3.771 -1.812,5.148 -0.724,1.378 -1.159,4.714 0.218,6.309 1.377,1.596 0.58,5.149 -0.218,5.439 -0.797,0.29 -1.232,1.016 -2.826,1.451 -1.595,0.435 -3.296,-1.096 -5.943,-2.321 -1.45,-0.671 -0.127,-3.136 0.634,-5.421 0.761,-2.284 0.924,-2.23 0.924,-2.773 0,-0.524 -0.85,-0.659 -0.924,-1.415 -0.384,-3.9 7.121,-20.286 8.86,-23.984 1.74,-3.698 8.317,-12.89 10.328,-15.609 2.011,-2.72 4.458,-7.832 4.295,-8.974 -0.163,-1.142 0.651,-5.928 0.108,-10.823 -0.543,-4.895 -1.739,-6.744 -1.848,-10.66 -0.109,-3.915 -1.361,-8.636 -0.87,-10.877 0.272,-1.241 1.259,-1.33 1.848,-1.958 1.006,-1.071 0.49,-1.523 0,-3.481 -0.489,-1.958 -0.38,-4.242 -1.522,-8.103 -1.141,-3.862 -6.151,-14.732 -7.066,-17.894 -0.705,-2.434 -0.249,-2.207 -1.142,-5.003 -1.069,-3.348 -2.283,-1.958 -2.935,-3.535 -0.652,-1.578 -0.054,-3.862 -1.848,-6.146 -1.794,-2.285 -2.12,-2.937 -3.044,-5.33 -0.924,-2.393 -3.914,-11.965 -5.49,-14.848 -1.577,-2.882 -0.272,-1.795 -0.761,-3.644 -0.489,-1.849 -1.626,-3.677 -2.881,-6.689 -1.308,-3.138 -4.73,-6.382 -5.746,-9.433 -0.552,-1.657 0.731,-3.099 3.108,-3.229 7.681,-0.419 7.129,5.996 9.922,8.909 2.515,2.623 2.554,3.97 2.5,5.711 -0.054,1.74 -0.543,3.208 0.054,3.154 0.598,-0.054 1.758,-0.961 2.7,0.707 0.942,1.668 4.566,11.095 5.943,14.721 1.377,3.626 2.03,4.133 2.972,5.438 0.942,1.306 3.841,5.802 4.856,7.76 1.015,1.958 6.45,11.675 9.784,15.881 5.32,6.71 8.987,2.175 13.771,-0.943 4.783,-3.118 8.697,-7.034 12.031,-10.95 3.334,-3.916 4.939,-3.292 9.857,-9.137 4.201,-4.992 6.711,-9.239 10.002,-12.908 2.364,-2.635 2.782,-2.696 3.434,-2.551 0.652,0.145 2.029,0.733 2.899,-0.718 0.87,-1.45 1.444,-2.203 2.436,-5.578 1.087,-3.698 1.941,-10.503 2.376,-11.736 0.435,-1.233 6.387,-0.258 7.307,3.274 C 0.851,-4.859 0.936,-3.099 0,0" /></g></g></g></g></svg>