<?xml version="1.0" encoding="utf-8"?>
<!-- Generator: Adobe Illustrator 19.2.1, SVG Export Plug-In . SVG Version: 6.00 Build 0)  -->
<svg version="1.1" id="layer" xmlns="http://www.w3.org/2000/svg" xmlns:xlink="http://www.w3.org/1999/xlink" x="0px" y="0px"
	 viewBox="0 163 652 326" style="enable-background:new 0 0 652 652;" xml:space="preserve">
<style type="text/css">
	.st0{fill:#4F5957;}
	.st1{fill:#C5D600;}
</style>
<polygon class="st0" points="372.4,267 329.8,267 329.8,193.6 346.9,193.6 346.9,252.8 372.4,252.8 "/>
<g>
	<path class="st0" d="M432.3,244.9h-37.4c0.8,7.6,6.5,11,13.4,11c6.8,0,12.8-3,15.8-5l6.7,8.8c-1.7,1.3-8.6,8.5-24.9,8.5
		c-16.2,0-28-10-28-27.3c0-17.3,12.8-27.2,28.3-27.2c15.5,0,26.3,10.3,26.3,25.6C432.5,241.8,432.3,244.9,432.3,244.9 M416.6,235.2
		c-0.1-4.8-3.6-10.5-10.7-10.5c-7,0-10.6,5.5-10.9,10.5H416.6z"/>
	<path class="st0" d="M489.4,267h-16.3l-0.3-5.5c-2.2,2.2-6.5,6.7-15,6.7c-9.3,0-19.1-5-19.1-16.7c0-11.7,10.8-15.7,20.4-16.1
		l13.2-0.5v-1.2c0-5.5-3.9-8.4-10.7-8.4c-6.7,0-13.4,3-16.1,4.7l-4.5-11.1c4.5-2.2,12.7-5.3,22.5-5.3c9.8,0,15.4,2.2,19.6,6.1
		c4,3.8,6.3,8.9,6.3,17.8V267z M472.5,243.9l-8.4,0.5c-5.2,0.2-8.3,2.5-8.3,6.4c0,4,3.3,6.5,8,6.5c4.6,0,7.7-3,8.7-4.8V243.9z"/>
	<polygon class="st0" points="552.3,214.6 530.7,267 514.8,267 493.3,214.6 511,214.6 523,247.8 534.8,214.6 	"/>
	<path class="st0" d="M608.3,244.9H571c0.7,7.6,6.5,11,13.4,11c6.8,0,12.8-3,15.8-5l6.7,8.8c-1.7,1.3-8.6,8.5-24.9,8.5
		c-16.2,0-28-10-28-27.3c0-17.3,12.8-27.2,28.3-27.2c15.5,0,26.3,10.3,26.3,25.6C608.5,241.8,608.3,244.9,608.3,244.9 M592.7,235.2
		c-0.1-4.8-3.6-10.5-10.7-10.5c-7,0-10.6,5.5-10.9,10.5H592.7z"/>
	<polygon class="st0" points="396.2,357.9 378.5,357.9 346.6,308.8 346.6,357.9 329.8,357.9 329.8,284.4 348.2,284.4 379.3,333.2
		379.4,284.4 396.2,284.4 	"/>
	<path class="st0" d="M435.4,359c-16.6,0-29.2-10.3-29.2-27.3c0-16.9,12.6-27.3,29.2-27.3c16.6,0,29.1,10.4,29.1,27.3
		C464.4,348.7,452,359,435.4,359 M435.4,317.8c-7.5,0-11.9,5.8-11.9,13.6c0,7.8,4.4,13.6,11.9,13.6c7.5,0,11.9-5.9,11.9-13.6
		C447.3,323.7,442.8,317.8,435.4,317.8"/>
	<polygon class="st0" points="384.9,388.9 366,388.9 366,448.7 348.7,448.7 348.7,388.9 329.8,388.9 329.8,375.2 384.9,375.2 	"/>
	<path class="st0" d="M421.1,411.8h-0.7c-1-0.5-3.2-1.3-6.2-1.3c-3.8,0-6.6,2.1-7.9,3.8c-1.3,1.7-2.7,5.1-2.7,11v23.3h-17v-52.5h17
		l-0.1,7.5h0.2c3-5.7,7.3-8.4,13-8.4c3.5,0,5.3,1,5.3,1L421.1,411.8z"/>
	<path class="st0" d="M476.8,448.7h-16.3l-0.3-5.5c-2.2,2.2-6.5,6.7-15,6.7c-9.3,0-19.1-5-19.1-16.7c0-11.7,10.8-15.7,20.4-16.1
		l13.2-0.5v-1.2c0-5.5-3.9-8.4-10.7-8.4c-6.7,0-13.4,3-16.1,4.7l-4.5-11.1c4.5-2.2,12.7-5.3,22.5-5.3c9.8,0,15.4,2.2,19.6,6.1
		c4,3.8,6.3,8.9,6.3,17.8V448.7z M459.9,425.6l-8.4,0.5c-5.2,0.2-8.3,2.5-8.3,6.4c0,4,3.3,6.5,8,6.5c4.6,0,7.7-3,8.7-4.8V425.6z"/>
	<path class="st0" d="M533.8,443.6c-0.5,0.4-6.1,6.3-20,6.3c-14.4,0-27.7-9.8-27.7-27.2c0-17.6,13.5-27.4,27.9-27.4
		c13.4,0,19.5,5.5,19.5,5.5l-3.7,12.9c-1.5-1.2-6.2-4.7-13.5-4.7c-7.2,0-13,5-13,13.3c0,8.3,5.2,13.5,13.2,13.5
		c8,0,13.3-5.1,13.3-5.1L533.8,443.6z"/>
	<path class="st0" d="M593.5,426.5h-37.4c0.7,7.6,6.5,11,13.4,11c6.8,0,12.8-3,15.8-5l6.7,8.8c-1.7,1.3-8.6,8.5-24.9,8.5
		c-16.2,0-28-10-28-27.3c0-17.3,12.8-27.2,28.3-27.2c15.5,0,26.3,10.3,26.3,25.6C593.7,423.4,593.5,426.5,593.5,426.5 M577.9,416.8
		c-0.1-4.8-3.6-10.5-10.7-10.5c-7,0-10.6,5.5-10.9,10.5H577.9z"/>
	<polygon class="st0" points="596.4,394.8 606.5,394.8 606.5,396.7 602.6,396.7 602.6,407.3 600.4,407.3 600.4,396.7 596.4,396.7
		"/>
	<polygon class="st0" points="607.9,394.8 611,394.8 614.5,404.6 614.5,404.6 617.9,394.8 620.9,394.8 620.9,407.3 618.8,407.3
		618.8,397.7 618.8,397.7 615.3,407.3 613.5,407.3 610.1,397.7 610,397.7 610,407.3 607.9,407.3 	"/>
	<path class="st1" d="M178.2,439.6c-4.2,0-8.6-0.1-13-0.5c-66.2-4.6-102-54.4-102-98.9c0-24,9.3-46.5,26.3-63.5
		c17-17,39.5-26.3,63.5-26.3c24,0,46.5,9.3,63.5,26.3c4.5,4.5,4.5,11.8,0,16.3c-4.5,4.5-11.8,4.5-16.3,0
		c-12.6-12.6-29.4-19.5-47.2-19.5c-17.8,0-34.6,6.9-47.2,19.5c-12.6,12.6-19.5,29.3-19.5,47.2c0,34.1,28.2,72.2,80.5,75.9
		c65.3,4.6,103.6-29.7,140.2-75.8V223.1c0-24.4-20-44.4-44.4-44.4H65.3c-24.4,0-44.4,20-44.4,44.4v44.4
		c35.1-38.7,77.6-67.7,141.8-63.1c66.2,4.6,101.9,54.4,101.9,98.9c0,24-9.3,46.5-26.3,63.5c-17,17-39.5,26.3-63.5,26.3
		c-24,0-46.5-9.3-63.5-26.3c-4.5-4.5-4.5-11.8,0-16.3c4.5-4.5,11.8-4.5,16.3,0c12.6,12.6,29.4,19.5,47.2,19.5
		c17.8,0,34.6-6.9,47.2-19.5c12.6-12.6,19.5-29.3,19.5-47.2c0-34-28.2-72.2-80.5-75.9C95.9,222.7,57.5,257,20.9,303.1v117.3
		c0,24.4,20,44.4,44.4,44.4h197.3c24.4,0,44.4-20,44.4-44.4V376C274.3,412,235.3,439.6,178.2,439.6 M163.7,342.5
		c-10.8,0-19.5-8.7-19.5-19.5c0-10.8,8.7-19.5,19.5-19.5c10.8,0,19.5,8.7,19.5,19.5C183.2,333.8,174.4,342.5,163.7,342.5"/>
</g>
</svg>
